<svg width="1421" height="481" viewBox="0 0 1421 481" fill="none" xmlns="http://www.w3.org/2000/svg">
<g clip-path="url(#clip0_1002_282)">
<rect width="1420" height="480" transform="translate(0.983887 0.370361)" fill="white"/>
<rect x="0.983887" y="0.0749512" width="1420" height="480" fill="url(#paint0_linear_1002_282)"/>
<path d="M493.605 276.963C490.77 224.682 511.634 196.007 547.906 196.616C590.121 197.323 576.862 267.212 593.553 291.415C605.618 308.909 628.171 337.146 630.515 376.755C631.358 391.005 623.101 424.045 574.916 427.233C511.694 431.416 497.148 342.315 493.605 276.963Z" fill="#7F317A"/>
<path d="M521.033 270.481C524.094 307.551 550.757 350.713 538.348 351.738C525.939 352.763 513.398 323.542 510.337 286.472C507.276 249.402 514.853 218.52 527.262 217.495C539.671 216.47 517.971 233.411 521.033 270.481Z" fill="white" fill-opacity="0.2"/>
<path d="M569.108 283.042C580.903 326.012 621.833 370.941 607.449 374.889C593.065 378.837 571.843 347.203 560.048 304.233C548.253 261.262 550.353 223.227 564.737 219.279C579.121 215.33 557.313 240.071 569.108 283.042Z" fill="white" fill-opacity="0.3"/>
<circle cx="530.688" cy="263.39" r="14.4814" transform="rotate(-6.67999 530.688 263.39)" fill="white"/>
<circle cx="532.883" cy="264.914" r="9.65429" transform="rotate(-6.67999 532.883 264.914)" fill="#2F80ED"/>
<circle cx="532.883" cy="264.914" r="6.27529" transform="rotate(-6.67999 532.883 264.914)" fill="black"/>
<circle cx="537.116" cy="259.558" r="4.82715" transform="rotate(-6.67999 537.116 259.558)" fill="white" fill-opacity="0.4"/>
<circle cx="566.167" cy="259.235" r="14.4814" transform="rotate(-6.67999 566.167 259.235)" fill="white"/>
<circle cx="568.361" cy="260.759" r="9.65429" transform="rotate(-6.67999 568.361 260.759)" fill="#2F80ED"/>
<circle cx="568.361" cy="260.759" r="6.27529" transform="rotate(-6.67999 568.361 260.759)" fill="black"/>
<circle cx="572.594" cy="255.403" r="4.82715" transform="rotate(-6.67999 572.594 255.403)" fill="white" fill-opacity="0.4"/>
<path d="M570.45 295.807C570.864 299.343 564.013 307.798 554.471 308.915C544.929 310.033 536.309 303.39 535.895 299.855C535.481 296.319 543.63 298.949 553.172 297.831C562.714 296.714 570.036 292.272 570.45 295.807Z" fill="black"/>
<path fill-rule="evenodd" clip-rule="evenodd" d="M544.183 307.336C544.166 307.259 544.153 307.181 544.144 307.102C543.823 304.359 548.029 301.613 553.539 300.967C559.05 300.322 563.777 302.022 564.098 304.765C564.107 304.844 564.113 304.923 564.115 305.002C561.487 306.936 558.182 308.481 554.471 308.915C550.759 309.35 547.187 308.611 544.183 307.336Z" fill="#FD0D38"/>
<path d="M536.913 192.574C542.88 191.056 555.355 153.396 557.344 152.803C562.298 150.809 570.925 155.092 571.335 158.589C571.632 161.127 556.433 190.451 562.225 194.473C590.929 214.409 574.924 228.572 582.425 229.229C589.927 229.887 588.077 219.152 589.993 220.208C591.908 221.263 594.945 233.728 579.137 238.319C565.594 242.252 552.145 214.599 552.737 219.65C553.329 224.701 548.396 234.703 541.306 240.01C535.304 244.503 532.955 246.429 525.758 255.311C522.162 243.474 520.857 238.642 520.557 236.083C519.489 226.965 524.301 225.139 523.771 216.241C523.241 207.342 481.239 246.201 493.029 226.643C517.628 185.837 529.455 194.471 536.913 192.574Z" fill="#90A73C"/>
<path d="M535.048 200.13C543.979 197.97 519.258 184.817 496.248 227.169C489.93 238.799 506.225 207.103 535.048 200.13Z" fill="#ADC648"/>
<path d="M559.128 204.474C554.161 201.43 559.435 186.387 577.775 218.035C582.811 226.726 562.072 206.278 559.128 204.474Z" fill="#ADC648"/>
<ellipse cx="563.725" cy="157.023" rx="6.48407" ry="2.43012" transform="rotate(21.0311 563.725 157.023)" fill="#ADC648"/>
<path d="M539.996 230.912C544.78 227.643 551.27 215.082 547.41 212.647C543.933 210.455 541.968 210.287 536.78 213.893C528.304 219.783 527.386 247.923 529.281 241.366C531.567 233.457 534.081 234.954 539.996 230.912Z" fill="#ADC648"/>
<ellipse cx="135.216" cy="222.699" rx="88.7927" ry="81.0153" transform="rotate(-10.2601 135.216 222.699)" fill="#E10E1C"/>
<path d="M121.778 168.83C144.378 176.941 121.185 193.806 111.306 221.331C101.427 248.857 108.603 276.621 86.0034 268.51C63.4036 260.399 53.0912 231.51 62.9701 203.984C72.849 176.458 99.1782 160.719 121.778 168.83Z" fill="white" fill-opacity="0.3"/>
<path d="M86.7369 195.711C95.6076 193.561 106.908 175.492 111.449 166.727C55.0234 166.866 50.932 145.486 51.3944 146.817C53.6182 153.222 113.376 154.803 111.159 153.843C108.943 152.882 92.5978 138.453 92.0936 129.248C91.5835 119.935 80.9219 109.045 76.1423 103.328C83.0817 105.93 99.0187 114.456 101.354 121.021C105.064 131.456 106.415 138.916 122.735 150.07C129.372 150.548 138.809 133.094 137.713 127.036C134.896 111.477 149.285 99.2802 156.54 94.2222C153.519 100.102 146.554 114.517 149.565 123.4C152.992 133.508 144.293 147.391 138.235 154.048C143.241 150.986 161.139 148.021 171.012 151.408C180.885 154.796 189.128 146.992 197.101 143.393C194.639 149.853 186.51 163.624 174.479 160.354C159.441 156.267 145.678 167.751 136.119 169.481C126.559 171.212 124.762 161.695 123.583 167.935C116.625 204.761 75.6486 198.399 86.7369 195.711Z" fill="#7AA809"/>
<rect x="110.914" y="116.514" width="10" height="46.9417" rx="4" transform="rotate(-10.2601 110.914 116.514)" fill="#58860C"/>
<ellipse cx="116.42" cy="118.863" rx="3.77227" ry="2.43012" transform="rotate(-10.2601 116.42 118.863)" fill="#7AA809"/>
<circle cx="119.045" cy="209.642" r="14.4814" transform="rotate(-10.2601 119.045 209.642)" fill="white"/>
<circle cx="119.223" cy="210.626" r="9.65429" transform="rotate(-10.2601 119.223 210.626)" fill="#2F80ED"/>
<circle cx="119.223" cy="210.626" r="6.27529" transform="rotate(-10.2601 119.223 210.626)" fill="black"/>
<circle cx="123.114" cy="205.016" r="4.82715" transform="rotate(-10.2601 123.114 205.016)" fill="white" fill-opacity="0.4"/>
<circle cx="164.035" cy="201.498" r="14.4814" transform="rotate(-10.2601 164.035 201.498)" fill="white"/>
<circle cx="164.213" cy="202.482" r="9.65429" transform="rotate(-10.2601 164.213 202.482)" fill="#2F80ED"/>
<circle cx="164.213" cy="202.482" r="6.27529" transform="rotate(-10.2601 164.213 202.482)" fill="black"/>
<circle cx="168.103" cy="196.872" r="4.82715" transform="rotate(-10.2601 168.103 196.872)" fill="white" fill-opacity="0.4"/>
<path d="M155.821 229.128C156.804 234.562 153.196 239.765 147.762 240.749C142.327 241.733 137.124 238.125 136.14 232.69" stroke="black" stroke-width="3"/>
<path d="M660.551 188.271C663.7 204.242 694.613 182.88 703.162 191.433C704.757 179.353 723.617 169.94 720.772 164.864C718.925 161.569 711.246 165.118 711.981 160.828C714.138 148.243 711.968 123.14 701.221 123.617C698.814 123.724 697.429 127.044 695.078 126.523C688.665 125.103 692.601 112.09 686.038 112.341C683.335 112.445 680.799 119.659 679.663 115.051C678.753 111.364 676.362 97.2448 669.337 99.358C665.887 100.396 666.014 104.248 662.792 105.861C657.019 108.752 646.802 91.0898 642.581 98.3721C640.916 101.244 641.415 104.636 641.511 106.806C641.608 108.976 628.495 100.617 621.457 105.842C613.831 111.503 621.28 122.303 621.28 122.303C621.28 122.303 612.915 125.771 612.324 130.466C611.526 136.817 624.191 137.412 625.631 140.038C627.073 142.667 625.912 143.335 626.951 145.089C630.517 151.108 638.077 140.585 644.495 141.461C654.689 142.854 659.436 163.162 659.436 163.162C659.436 163.162 649.903 161.655 648.372 165.827C646.567 170.75 654.115 171.577 659.862 172.772C657.109 173.722 650.368 174.435 651.107 178.441C651.796 182.181 657.045 181.594 660.262 181.761C660.262 181.761 660.059 185.774 660.551 188.271Z" fill="#01A103"/>
<path fill-rule="evenodd" clip-rule="evenodd" d="M633.801 119.307C633.801 119.307 654.136 124.308 663.914 132.385C668.71 136.348 672.453 140.265 675.878 144.483C673.876 144.13 672.01 144.618 670.248 145.08C668.659 145.496 667.156 145.89 665.714 145.623C660.383 144.638 657.299 136.751 657.299 136.751C657.299 136.751 657.737 138.78 658.22 139.968C660.025 144.406 662.398 146.703 666.788 147.766C668.398 148.155 669.774 147.747 671.157 147.336C672.502 146.937 673.854 146.535 675.435 146.864C676.657 147.117 677.879 147.744 678.991 148.499C681.193 151.46 683.356 154.603 685.698 158.031C688.373 161.946 690.721 166.249 692.779 170.722C692.118 170.593 691.468 170.497 690.877 170.461C687.767 170.271 685.204 171.555 682.8 172.76C680.858 173.733 679.02 174.654 677.081 174.703C669.913 174.887 663.765 165.525 663.765 165.525C663.765 165.525 664.887 168.031 665.837 169.436C669.387 174.685 673.086 177.008 679.057 177.182C681.247 177.245 682.916 176.34 684.593 175.431C686.225 174.546 687.865 173.657 690 173.649C691.455 173.644 692.989 174.014 694.46 174.562C704.136 197.795 706.52 223.856 706.52 223.856L712.897 223.559C712.897 223.559 710.522 201.524 701.202 178.28C701.842 178.739 702.213 179.04 702.213 179.04L700.119 175.649C699.143 173.339 698.097 171.026 696.977 168.729L697.166 168.895C697.166 168.895 692.952 161.404 693.901 155.95C694.267 153.846 695.419 152.379 696.565 150.919C697.744 149.418 698.917 147.924 699.221 145.755C700.053 139.839 698.383 135.803 693.803 131.423C692.576 130.25 690.294 128.724 690.294 128.724C690.294 128.724 698.494 136.356 697.109 143.391C696.735 145.294 695.518 146.951 694.233 148.703C692.641 150.87 690.944 153.182 690.609 156.28C690.579 156.563 690.559 156.863 690.549 157.174C687.444 152.288 683.928 147.656 679.952 143.506C679.424 142.955 678.918 142.426 678.431 141.916C675.673 139.029 673.502 136.756 671.164 134.604C670.361 133.201 669.693 131.618 669.573 130.104C669.445 128.495 670.013 127.203 670.579 125.919C671.16 124.598 671.738 123.284 671.553 121.638C671.05 117.149 669.068 114.507 664.891 112.16C663.772 111.532 661.814 110.843 661.814 110.843C661.814 110.843 669.253 114.891 669.562 120.304C669.645 121.767 669.066 123.21 668.454 124.734C667.696 126.621 666.888 128.633 667.225 130.964C667.239 131.066 667.256 131.169 667.276 131.274C665.788 130.09 664.132 128.864 662.184 127.517C652.695 120.952 633.801 119.307 633.801 119.307Z" fill="#EA3C77"/>
<path d="M775.621 190.663C768.467 205.285 744.094 176.687 733.631 182.751C735.198 170.668 719.396 156.718 723.452 152.545C726.085 149.837 732.592 155.243 732.986 150.907C734.141 138.191 742.698 114.492 752.961 117.72C755.258 118.442 755.742 122.006 758.149 122.108C764.711 122.387 764.256 108.799 770.533 110.731C773.119 111.527 773.713 119.151 775.997 114.99C777.824 111.662 783.769 98.6334 790.014 102.483C793.081 104.374 791.966 108.064 794.664 110.451C799.499 114.731 813.917 100.293 816.122 108.417C816.992 111.621 815.637 114.77 814.985 116.842C814.333 118.914 829.156 114.211 834.612 121.072C840.524 128.504 830.546 137.024 830.546 137.024C830.546 137.024 837.738 142.527 837.1 147.216C836.237 153.559 823.845 150.875 821.777 153.042C819.708 155.211 820.657 156.155 819.202 157.583C814.207 162.481 809.61 150.367 803.183 149.562C792.974 148.284 783.161 166.686 783.161 166.686C783.161 166.686 792.76 167.684 793.165 172.109C793.643 177.33 786.136 176.188 780.275 175.862C782.691 177.489 789.021 179.913 787.277 183.594C785.648 187.031 780.727 185.112 777.575 184.446C777.575 184.446 776.739 188.377 775.621 190.663Z" fill="#01A103"/>
<path fill-rule="evenodd" clip-rule="evenodd" d="M819.218 130.906C819.218 130.906 798.282 130.505 786.754 135.794C781.099 138.388 776.475 141.211 772.079 144.405C774.105 144.579 775.782 145.531 777.366 146.43C778.794 147.241 780.146 148.009 781.608 148.122C787.013 148.542 792.023 141.715 792.023 141.715C792.023 141.715 791.077 143.563 790.305 144.587C787.419 148.411 784.534 150.02 780.018 149.916C778.363 149.878 777.138 149.13 775.907 148.377C774.71 147.645 773.507 146.909 771.895 146.819C770.649 146.75 769.307 147.041 768.037 147.484C765.147 149.779 762.249 152.259 759.104 154.969C755.511 158.064 752.134 161.617 748.995 165.41C749.666 165.455 750.32 165.53 750.9 165.647C753.954 166.264 756.1 168.165 758.113 169.948C759.74 171.388 761.279 172.751 763.139 173.298C770.018 175.32 778.369 167.856 778.369 167.856C778.369 167.856 776.64 169.988 775.36 171.102C770.579 175.26 766.407 176.553 760.592 175.184C758.46 174.682 757.08 173.378 755.693 172.067C754.344 170.792 752.988 169.511 750.927 168.954C749.522 168.574 747.945 168.537 746.382 168.689C731.052 188.648 722.042 213.218 722.042 213.218L715.956 211.29C715.956 211.29 723.922 190.609 738.91 170.546C738.174 170.825 737.737 171.02 737.737 171.02L740.634 168.282C742.171 166.302 743.777 164.335 745.451 162.403L745.226 162.515C745.226 162.515 751.226 156.361 751.713 150.847C751.901 148.72 751.165 147.005 750.433 145.3C749.68 143.546 748.931 141.801 749.195 139.626C749.914 133.696 752.566 130.225 758.12 127.171C759.607 126.354 762.205 125.466 762.205 125.466C762.205 125.466 752.317 130.731 751.844 137.886C751.717 139.821 752.466 141.735 753.257 143.758C754.237 146.263 755.282 148.933 754.808 152.013C754.765 152.295 754.706 152.59 754.636 152.892C758.895 148.97 763.484 145.399 768.395 142.412C769.046 142.016 769.671 141.635 770.273 141.267C773.681 139.187 776.364 137.55 779.177 136.072C780.314 134.923 781.367 133.565 781.873 132.133C782.41 130.611 782.194 129.217 781.978 127.83C781.757 126.404 781.536 124.985 782.138 123.442C783.78 119.234 786.375 117.191 791.016 115.998C792.258 115.679 794.328 115.518 794.328 115.518C794.328 115.518 786.097 117.514 784.406 122.666C783.948 124.058 784.137 125.602 784.336 127.232C784.583 129.25 784.846 131.402 783.921 133.569C783.88 133.663 783.837 133.758 783.791 133.855C785.534 133.093 787.45 132.335 789.679 131.535C800.538 127.633 819.218 130.906 819.218 130.906Z" fill="#EA3C77"/>
<path d="M766.687 148.151C761.957 164.428 734.234 169.356 720.964 169.786C714.559 165.496 686.283 156.989 690.362 149.078C691.087 147.672 694.422 146.647 694.422 146.647C694.422 146.647 681.148 132.899 680.922 127.109C680.697 121.318 681.834 118.931 685.771 117.083C687.516 116.263 690.649 116.316 690.649 116.316C690.649 116.316 684.693 107.072 688.122 99.123C691.416 91.4856 695.636 98.4844 695.636 98.4844C695.636 98.4844 696.462 82.7113 700.989 75.6552C711.646 59.0407 712.232 78.6219 719.173 66.9338C728.938 50.4923 727.833 72.7044 734.026 59.7443C740.218 46.7842 745.259 47.9353 749.864 49.3113C754.448 50.681 752.557 58.7974 755.314 60.2823C758.07 61.7672 758.709 56.7311 761.172 57.3956C767.395 59.0751 761.321 70.9829 766.636 75.2303C773.01 80.3247 764.869 84.118 768.923 85.3512C772.977 86.5844 772.82 92.9951 772.64 94.3707C771.273 104.82 762.206 119.316 767.494 117.521C776.231 114.557 770.296 130.704 767.423 134.232C766.029 135.943 763.821 142.129 763.821 142.129C763.821 142.129 769.715 137.731 766.687 148.151Z" fill="#33CE34"/>
<path fill-rule="evenodd" clip-rule="evenodd" d="M740.372 76.4395C740.372 76.4395 735.858 91.3884 733.517 101.11C731.334 110.175 730.208 116.323 728.866 124.005C729.696 123.14 730.948 121.924 732.05 121.225C734.057 119.954 736.242 119.868 738.29 119.787C739.945 119.722 741.511 119.66 742.824 118.98C747.678 116.464 748.338 107.95 748.338 107.95C748.338 107.95 748.511 110.036 748.394 111.324C747.956 116.136 746.341 119.049 742.417 121.363C740.978 122.211 739.531 122.221 738.076 122.231C736.661 122.241 735.238 122.251 733.81 123.031C730.106 125.056 727.638 131.127 727.638 131.127L727.644 131.007C727.571 131.425 727.496 131.85 727.42 132.281C726.256 138.864 725.115 146.279 724.044 153.848C725.2 152.847 726.737 151.624 728.078 150.917C730.857 149.451 733.746 149.567 736.455 149.675C738.644 149.763 740.715 149.846 742.517 149.086C749.181 146.278 750.943 135.121 750.943 135.121C750.943 135.121 750.952 137.89 750.663 139.576C749.581 145.874 747.146 149.545 741.731 152.184C739.745 153.152 737.836 153.014 735.916 152.874C734.049 152.739 732.173 152.603 730.208 153.483C727.295 154.786 724.776 157.876 723.153 160.284C719.77 185.271 717.268 209.839 717.268 209.839L711.099 209.032C711.099 209.032 715.086 177.406 720.463 147.276C719.511 144.525 717.856 140.844 715.348 138.821C713.672 137.469 711.823 137.122 709.983 136.778C708.091 136.423 706.209 136.07 704.536 134.628C699.972 130.695 698.555 126.524 699.116 120.158C699.266 118.453 699.982 115.778 699.982 115.778C699.982 115.778 698.838 127.017 704.566 131.431C706.115 132.625 708.139 133.073 710.278 133.546L710.278 133.546C712.926 134.132 715.75 134.757 718.063 136.883C719.336 138.053 720.684 139.935 721.56 141.257C722.95 133.8 724.416 126.576 725.917 120.105C726.226 118.776 726.516 117.539 726.795 116.368C726.54 114.468 726.006 112.341 724.912 110.826C723.958 109.506 722.678 108.885 721.405 108.267C720.096 107.632 718.793 107 717.86 105.615C715.314 101.837 715.111 98.5128 716.788 93.9809C717.237 92.7675 718.291 90.9591 718.291 90.9591C718.291 90.9591 715.22 98.9289 718.518 103.289C719.41 104.468 720.798 105.198 722.264 105.969C724.079 106.924 726.014 107.942 727.278 109.953C727.542 110.373 727.793 110.87 728.024 111.387C729.291 106.453 730.556 102.211 732.609 95.9706C735.174 88.1739 740.372 76.4395 740.372 76.4395Z" fill="#EA3C77"/>
<path fill-rule="evenodd" clip-rule="evenodd" d="M759.475 321.56C775.367 312.281 786.332 297.963 788.573 280.845C793.028 246.81 761.308 214.595 717.724 208.89C674.141 203.186 635.198 226.152 630.744 260.187C628.572 276.776 634.995 292.933 647.197 305.799C649.699 308.436 652.365 311.527 655.203 314.817C663.539 324.482 673.354 335.86 684.799 342.472C684.237 347.258 683.112 354.425 681.058 359.366C676.749 369.735 663.221 382.644 663.221 382.644C663.221 382.644 685.588 374.21 696.181 365.283C702.809 359.697 710.093 349.483 711.705 347.172C724.683 344.51 737.464 335.974 748.399 328.672C752.36 326.027 756.078 323.544 759.475 321.56Z" fill="#8B0911"/>
<path d="M712.787 343.384C710.562 341.293 752.333 314.943 751.087 285.724C749.841 256.506 676.55 207.298 718.38 212.773C749.815 216.887 783.445 240.03 783.705 276.499C785.376 308.758 715.012 345.475 712.787 343.384Z" fill="white" fill-opacity="0.3"/>
<circle cx="691.978" cy="256.105" r="12.9418" transform="rotate(7.45689 691.978 256.105)" fill="white"/>
<circle cx="690.573" cy="257.515" r="8.62788" transform="rotate(7.45689 690.573 257.515)" fill="#27AE60"/>
<circle cx="690.573" cy="257.515" r="5.60812" transform="rotate(7.45689 690.573 257.515)" fill="black"/>
<circle cx="695.41" cy="253.798" r="4.31394" transform="rotate(7.45689 695.41 253.798)" fill="white" fill-opacity="0.4"/>
<circle cx="729.581" cy="261.026" r="12.9418" transform="rotate(7.45689 729.581 261.026)" fill="white"/>
<circle cx="728.176" cy="262.437" r="8.62788" transform="rotate(7.45689 728.176 262.437)" fill="#27AE60"/>
<circle cx="728.175" cy="262.437" r="5.60812" transform="rotate(7.45689 728.175 262.437)" fill="black"/>
<circle cx="733.013" cy="258.719" r="4.31394" transform="rotate(7.45689 733.013 258.719)" fill="white" fill-opacity="0.4"/>
<path d="M725.068 286.177C724.606 289.706 715.898 296.232 706.372 294.985C696.846 293.739 690.11 285.191 690.572 281.662C691.033 278.133 698.294 282.673 707.82 283.92C717.346 285.167 725.53 282.648 725.068 286.177Z" fill="black"/>
<path fill-rule="evenodd" clip-rule="evenodd" d="M696.781 290.942C696.784 290.863 696.79 290.784 696.801 290.705C697.159 287.967 701.909 286.331 707.41 287.051C712.911 287.771 717.08 290.574 716.721 293.312C716.711 293.391 716.697 293.469 716.679 293.546C713.659 294.779 710.077 295.47 706.372 294.985C702.666 294.5 699.383 292.911 696.781 290.942Z" fill="#FD0D38"/>
<path d="M418.407 241.948C407.217 311.845 376.729 323.344 352.826 315.962C335.048 310.472 324.603 268.265 349.172 200.328C368.188 154.232 346.728 118.768 353.577 99.1731C359.245 82.9563 372.835 77.5264 384.481 79.3908C400.865 79.3471 420.055 101.312 423.399 134.12C426.742 166.928 426.358 192.276 418.407 241.948Z" fill="#67B14A"/>
<path d="M363.753 269.586C367.91 299.013 376.729 323.344 352.826 315.962C335.048 310.472 324.603 268.265 349.172 200.328C368.188 154.232 346.728 118.768 353.577 99.173C359.245 82.9562 372.835 77.5263 384.481 79.3907C401.191 82.0655 397.791 104.305 390.534 122.236C383.278 140.167 359.595 240.158 363.753 269.586Z" fill="#4F9C34"/>
<path d="M359.28 82.4418C359.28 82.4418 364.305 67.3663 372.5 65.3323C378.767 63.777 385.405 70.6141 391.777 69.5684C402.305 67.8404 398.774 51.9687 409.109 49.3162C418.078 47.0141 423.446 53.8364 423.446 53.8364L426.541 58.2384C426.541 58.2384 419.155 50.8175 412.096 52.9585C404.209 55.3504 406.024 71.5349 395.969 75.7556C387.877 79.1521 381.176 71.2427 373.518 74.8005C366.528 78.048 362.75 91.2016 362.75 91.2016L359.28 82.4418Z" fill="#9ACE85"/>
<path d="M352.404 102.903C352.404 102.903 341.626 100.776 337.605 105.008C334.531 108.244 336.374 114.569 333.57 118.042C328.937 123.781 320.602 116.239 315.479 121.546C311.032 126.152 313.301 131.708 313.301 131.708L314.89 135.072C314.89 135.072 312.951 128.098 316.648 124.586C320.779 120.661 329.888 127.278 335.858 122.675C340.663 118.971 338.196 112.242 342.949 108.853C347.288 105.76 356.485 107.98 356.485 107.98L352.404 102.903Z" fill="#9ACE85"/>
<path fill-rule="evenodd" clip-rule="evenodd" d="M355.245 51.5372C352.37 49.9961 350.755 47.4616 351.521 42.971C351.631 42.3256 352.001 41.645 352.488 41.012L352.484 41.0014C352.484 41.0014 352.543 40.9295 352.651 40.8073C353.413 39.8808 354.399 39.08 355.135 38.6791C357.531 37.1901 360.971 36.6828 362.91 43.8049C363.65 46.5215 362.704 48.7311 361.275 50.7775C361.582 50.8422 361.889 50.9041 362.192 50.9654C362.554 51.0383 362.911 51.1104 363.26 51.1855C367.673 52.1355 371.727 47.4303 371.727 47.4303L370.103 50.1643C370.103 50.1643 367.24 54.4269 361.658 53.4666C360.923 53.3401 360.207 53.1999 359.518 53.04C359.455 53.1166 359.392 53.1931 359.329 53.2696C356.965 56.1394 354.637 58.9661 356.06 62.8124C356.885 65.0405 358.957 66.6142 361.022 68.1827C363.211 69.8451 365.393 71.5018 366.074 73.9259C367.804 80.0876 359.754 89.0467 359.754 89.0467L352.682 90.0424C352.682 90.0424 359.933 82.6249 359.454 76.8026C359.191 73.6094 357.124 71.6509 355.026 69.6626C352.933 67.6792 350.809 65.6661 350.413 62.3683C349.916 58.2359 352.675 54.736 355.245 51.5372ZM356.993 49.3116C355.231 48.2212 354.171 46.3798 354.853 42.9123C355.974 41.3235 357.791 39.5779 358.994 42.6365C359.857 44.8295 358.707 47.0081 356.993 49.3116Z" fill="#9ACE85"/>
<path fill-rule="evenodd" clip-rule="evenodd" d="M327.755 94.1893C328 91.0726 334.619 87.7693 342.074 85.8597C340.599 77.8263 340.864 69.6764 343.792 68.1395C346.919 66.4984 354.58 71.611 360.596 77.9381C367.453 73.0249 375.386 69.6245 378.08 71.7197C380.576 73.6613 379.645 81.1548 377.074 88.5131C384.218 91.5345 390.346 95.8324 390.099 98.9757C389.844 102.204 382.754 105.631 374.979 107.504C376.103 114.926 375.675 122.022 372.963 123.445C370.042 124.978 363.162 120.616 357.364 114.876C350.487 119.822 342.5 123.26 339.794 121.156C337.327 119.237 338.207 111.897 340.711 104.623C333.596 101.603 327.508 97.3225 327.755 94.1893Z" fill="#F8DE03"/>
<circle cx="358.304" cy="96.5335" r="5.94893" transform="rotate(4.50732 358.304 96.5335)" fill="#FFF46A"/>
<circle cx="377.873" cy="146.484" r="12.3892" transform="rotate(-8.04224 377.873 146.484)" fill="white"/>
<circle cx="377.993" cy="147.331" r="8.25947" transform="rotate(-8.04224 377.993 147.331)" fill="#CA5D00"/>
<circle cx="377.993" cy="147.331" r="5.36865" transform="rotate(-8.04224 377.993 147.331)" fill="black"/>
<circle cx="381.505" cy="142.664" r="4.12973" transform="rotate(-8.04224 381.505 142.664)" fill="white" fill-opacity="0.4"/>
<circle cx="408.985" cy="142.088" r="12.3892" transform="rotate(-8.04224 408.985 142.088)" fill="white"/>
<circle cx="409.105" cy="142.935" r="8.25947" transform="rotate(-8.04224 409.105 142.935)" fill="#CA5D00"/>
<circle cx="409.105" cy="142.935" r="5.36865" transform="rotate(-8.04224 409.105 142.935)" fill="black"/>
<circle cx="412.616" cy="138.268" r="4.12973" transform="rotate(-8.04224 412.616 138.268)" fill="white" fill-opacity="0.4"/>
<path d="M405.666 161.855C406.439 167.323 402.632 172.383 397.163 173.155C391.695 173.928 386.635 170.121 385.863 164.653" stroke="black" stroke-width="3"/>
<path d="M302.554 365.427C313.264 406.94 274.71 448.247 236.238 449.824C197.766 451.401 154.962 413.429 163.236 371.138C171.511 328.847 211.651 287.475 229.553 286.741C247.454 286.008 291.845 323.914 302.554 365.427Z" fill="#FF9137"/>
<path d="M251.355 448.087C251.488 451.334 244.754 454.247 236.313 454.593C227.872 454.939 220.921 452.587 220.788 449.34C220.655 446.094 227.583 447.901 236.024 447.555C244.465 447.209 251.222 444.841 251.355 448.087Z" fill="#D15811"/>
<ellipse cx="218.517" cy="331.093" rx="20.7478" ry="26.3924" transform="rotate(19.307 218.517 331.093)" fill="white" fill-opacity="0.3"/>
<path d="M231.377 291.195C231.377 291.195 230.885 267.093 231.692 251.681C232.279 240.482 239.654 227.662 239.654 227.662C239.654 227.662 248.273 214.663 256.808 212.031C262.442 210.294 275.004 207.464 271.814 211.949C271.341 212.614 268.987 214.336 268.987 214.336C268.987 214.336 255.082 224.366 250.825 231.494C246.548 238.656 246.145 243.593 244.175 251.612C240.457 266.75 240.517 291.267 240.517 291.267L231.377 291.195Z" fill="#468402"/>
<path d="M223.888 291.254C223.888 291.254 222.858 260.034 223.786 240.055C224.46 225.538 234.701 208.83 234.701 208.83C234.701 208.83 246.698 191.875 258.718 188.353C266.653 186.029 284.361 182.196 279.917 188.05C279.257 188.918 275.956 191.18 275.956 191.18C275.956 191.18 256.45 204.357 250.535 213.649C244.592 222.985 244.092 229.386 241.42 239.802C236.377 259.464 236.801 291.229 236.801 291.229L223.888 291.254Z" fill="#5C9B10"/>
<path d="M217.412 291.607C217.412 291.607 215.108 248.82 215.529 221.394C215.834 201.465 227.493 178.252 227.493 178.252C227.493 178.252 241.239 154.647 255.476 149.466C264.874 146.045 285.893 140.271 280.786 148.428C280.028 149.639 276.163 152.837 276.163 152.837C276.163 152.837 253.317 171.48 246.571 184.397C239.794 197.374 239.417 206.167 236.584 220.531C231.235 247.643 232.835 291.193 232.835 291.193L217.412 291.607Z" fill="#78A501"/>
<path d="M240.947 289.73C241.052 292.288 235.745 294.583 229.094 294.856C222.443 295.128 216.966 293.276 216.862 290.717C216.757 288.159 222.216 289.583 228.867 289.311C235.518 289.038 240.842 287.172 240.947 289.73Z" fill="#D15811"/>
<circle cx="221.585" cy="345.75" r="14.7702" transform="rotate(-2.34744 221.585 345.75)" fill="white"/>
<circle cx="222.419" cy="344.095" r="9.84679" transform="rotate(-2.34744 222.419 344.095)" fill="#27AE60"/>
<circle cx="222.419" cy="344.095" r="6.40041" transform="rotate(-2.34744 222.419 344.095)" fill="black"/>
<circle cx="227.137" cy="338.974" r="4.92339" transform="rotate(-2.34744 227.137 338.974)" fill="white" fill-opacity="0.4"/>
<circle cx="264.829" cy="343.977" r="14.7702" transform="rotate(-2.34744 264.829 343.977)" fill="white"/>
<circle cx="265.664" cy="342.322" r="9.84679" transform="rotate(-2.34744 265.664 342.322)" fill="#27AE60"/>
<circle cx="265.664" cy="342.322" r="6.40041" transform="rotate(-2.34744 265.664 342.322)" fill="black"/>
<circle cx="270.382" cy="337.201" r="4.92339" transform="rotate(-2.34744 270.382 337.201)" fill="white" fill-opacity="0.4"/>
<path d="M261.722 375.483C261.867 379.039 254.397 386.953 244.798 387.347C235.199 387.74 227.106 380.465 226.96 376.908C226.814 373.352 234.742 376.589 244.341 376.196C253.94 375.802 261.576 371.927 261.722 375.483Z" fill="black"/>
<path fill-rule="evenodd" clip-rule="evenodd" d="M234.659 384.995C234.648 384.917 234.641 384.838 234.638 384.758C234.525 381.999 238.927 379.578 244.47 379.351C250.013 379.124 254.598 381.176 254.711 383.935C254.715 384.015 254.714 384.094 254.71 384.173C251.943 385.903 248.532 387.193 244.798 387.347C241.064 387.5 237.558 386.492 234.659 384.995Z" fill="#FD0D38"/>
<path d="M1243.62 138.902C1244.93 142.983 1247.13 152.846 1248.12 160.783C1250.8 182.278 1244.5 184.529 1252.1 208.229C1253.82 213.578 1259.57 221.596 1262.73 221.58C1265.87 221.564 1272.74 212.434 1273.85 200.158C1276.19 174.235 1270.97 150.498 1270.97 150.498C1270.97 150.498 1270.01 139.729 1273.85 138.903C1308.12 131.524 1283.47 364.323 1283.47 364.323H1237.03C1237.03 364.323 1230.09 96.9788 1243.62 138.902Z" fill="#7AD160"/>
<path d="M1198.56 140.557C1195.03 142.61 1205.38 160.718 1208.81 173.886C1212.84 189.35 1217.09 213.909 1217.09 213.909C1217.09 213.909 1216.53 221.992 1212.97 222.419C1210.05 222.77 1208.49 220.333 1206.55 217.769C1191.64 198.08 1178.52 160.807 1178.52 160.807C1178.52 160.807 1174.21 148.099 1171.76 150.997C1157.91 167.4 1204.13 239.521 1220.02 293.665C1235.91 347.809 1253.95 338.16 1253.95 338.16C1253.95 338.16 1227.8 123.545 1198.56 140.557Z" fill="#7AD160"/>
<path d="M1335.07 142.268C1336.39 145.484 1331.6 152.994 1329.64 159.934C1324.31 178.73 1321.32 186.551 1318.91 208.693C1318.6 211.572 1317.69 214.711 1320.05 215.662C1322.41 216.61 1330.76 204.531 1335.07 197.932C1339.38 191.333 1351.58 160.322 1351.58 160.322C1351.58 160.322 1354.54 151.023 1357.69 151.505C1385.86 155.804 1339.59 217.968 1310.83 269.247C1282.08 320.527 1276.43 290.876 1276.43 290.876C1276.43 290.876 1322.26 111.004 1335.07 142.268Z" fill="#7AD160"/>
<path d="M1219.27 272.285C1219.27 270.076 1221.06 268.285 1223.27 268.285H1301.82C1304.03 268.285 1305.82 270.076 1305.82 272.285V361.36C1305.82 363.418 1304.27 365.137 1302.22 365.321C1294.43 366.024 1275.65 367.583 1262.52 367.582C1249.41 367.581 1230.66 366.023 1222.87 365.321C1220.82 365.137 1219.27 363.418 1219.27 361.36V272.285Z" fill="#7AD160"/>
<path d="M1299.48 280.581C1296.41 309.761 1299.48 358.794 1299.48 358.794C1299.48 358.794 1274.6 361.868 1261.25 361.824C1248.37 361.781 1225.42 358.794 1225.42 358.794C1225.42 358.794 1225.42 318.201 1225.32 285.84C1225.27 270.647 1190.79 218.508 1201.72 230.316C1212.66 242.123 1218.2 248.598 1222.39 245.847C1227.73 242.348 1221.45 210.01 1225.32 207.725C1229.18 205.44 1233.93 245.408 1240.38 243.169C1245.87 241.262 1239.12 218.342 1242.72 213.937C1246.33 209.533 1256.78 243.295 1265.19 243.169C1272.01 243.067 1279.66 186.551 1285.93 186.546C1292.2 186.54 1273.98 270.698 1294.68 254.037C1307.61 243.632 1298.96 200.269 1308.51 213.847C1314.27 222.046 1308.67 239.381 1311.11 239.381C1313.55 239.381 1320.71 228.751 1328.57 224.386C1350.17 212.385 1301.3 263.327 1299.48 280.581Z" fill="white" fill-opacity="0.2"/>
<ellipse cx="1220.19" cy="153.625" rx="33.6942" ry="25.8093" transform="rotate(-10.7181 1220.19 153.625)" fill="#52A938"/>
<ellipse cx="1373.04" cy="149.431" rx="31.6169" ry="24.0757" transform="rotate(-10.7181 1373.04 149.431)" fill="#52A938"/>
<ellipse cx="1284.41" cy="144.691" rx="46.6841" ry="31.3404" transform="rotate(14.6522 1284.41 144.691)" fill="#52A938"/>
<ellipse cx="1199.99" cy="122.895" rx="43.7455" ry="32.3779" transform="rotate(14.6522 1199.99 122.895)" fill="#52A938"/>
<ellipse cx="1244.5" cy="95.7353" rx="39.2643" ry="30.0763" transform="rotate(-2.02255 1244.5 95.7353)" fill="#52A938"/>
<ellipse cx="1298.02" cy="103.777" rx="33.5834" ry="27.7906" transform="rotate(-2.02255 1298.02 103.777)" fill="#52A938"/>
<ellipse cx="1168.59" cy="163.397" rx="35.3801" ry="29.4309" transform="rotate(-2.02255 1168.59 163.397)" fill="#52A938"/>
<ellipse cx="1155.95" cy="136.955" rx="22.8229" ry="18.9483" transform="rotate(-2.02255 1155.95 136.955)" fill="#52A938"/>
<ellipse cx="1374.1" cy="169.189" rx="18.3101" ry="15.2017" transform="rotate(-2.02255 1374.1 169.189)" fill="#52A938"/>
<ellipse cx="1243.83" cy="169.099" rx="15.5908" ry="12.1163" transform="rotate(-2.02255 1243.83 169.099)" fill="#52A938"/>
<ellipse cx="1351.18" cy="125.359" rx="35.9943" ry="32.1617" transform="rotate(-2.02255 1351.18 125.359)" fill="#52A938"/>
<ellipse cx="1341.15" cy="169.208" rx="29.6553" ry="23.6262" transform="rotate(5.81715 1341.15 169.208)" fill="#52A938"/>
<ellipse cx="1178.09" cy="105.321" rx="7.47966" ry="5.95421" transform="rotate(-21.3393 1178.09 105.321)" fill="#7AD160"/>
<ellipse cx="1177.43" cy="122.745" rx="5.3042" ry="3.31628" transform="rotate(-13.1197 1177.43 122.745)" fill="#7AD160"/>
<ellipse cx="1193.61" cy="113.589" rx="5.52236" ry="4.41677" transform="rotate(-13.1197 1193.61 113.589)" fill="#7AD160"/>
<ellipse cx="1150.02" cy="169.762" rx="5.3042" ry="3.31628" transform="rotate(42.2731 1150.02 169.762)" fill="#7AD160"/>
<ellipse cx="1166.74" cy="177.875" rx="5.52236" ry="4.41677" transform="rotate(42.2731 1166.74 177.875)" fill="#7AD160"/>
<ellipse cx="1285.45" cy="162.392" rx="7.47966" ry="5.95421" transform="rotate(-178.001 1285.45 162.392)" fill="#7AD160"/>
<ellipse cx="1292.96" cy="146.655" rx="5.3042" ry="3.31628" transform="rotate(-169.781 1292.96 146.655)" fill="#7AD160"/>
<ellipse cx="1274.48" cy="148.654" rx="5.52236" ry="4.41677" transform="rotate(-169.781 1274.48 148.654)" fill="#7AD160"/>
<ellipse cx="1353.81" cy="159.899" rx="7.47966" ry="5.95421" transform="rotate(-21.3393 1353.81 159.899)" fill="#7AD160"/>
<ellipse cx="1349.09" cy="174.533" rx="5.3042" ry="3.31628" transform="rotate(-13.1197 1349.09 174.533)" fill="#7AD160"/>
<ellipse cx="1340.3" cy="159.363" rx="3.09804" ry="2.44651" transform="rotate(-13.1197 1340.3 159.363)" fill="#7AD160"/>
<ellipse cx="1335.17" cy="171.485" rx="5.52236" ry="4.41677" transform="rotate(-13.1197 1335.17 171.485)" fill="#7AD160"/>
<ellipse cx="10.5419" cy="6.66122" rx="10.5419" ry="6.66122" transform="matrix(0.961973 -0.273146 0.473461 0.880815 1274.95 89.0927)" fill="#7AD160"/>
<ellipse cx="7.62639" cy="3.58822" rx="7.62639" ry="3.58822" transform="matrix(0.985954 -0.167016 0.305361 0.952237 1272.76 105.419)" fill="#7AD160"/>
<ellipse cx="1362.78" cy="108.945" rx="7.47966" ry="5.95421" transform="rotate(-21.3393 1362.78 108.945)" fill="#7AD160"/>
<ellipse cx="1358.06" cy="123.579" rx="5.3042" ry="3.31628" transform="rotate(-13.1197 1358.06 123.579)" fill="#7AD160"/>
<ellipse cx="1332.63" cy="127.18" rx="5.52236" ry="4.41677" transform="rotate(-13.1197 1332.63 127.18)" fill="#7AD160"/>
<ellipse cx="1224.15" cy="133.627" rx="7.47966" ry="5.95421" transform="rotate(-21.3393 1224.15 133.627)" fill="#7AD160"/>
<ellipse cx="1236.22" cy="144.001" rx="5.3042" ry="3.31628" transform="rotate(-13.1197 1236.22 144.001)" fill="#7AD160"/>
<ellipse cx="1209.96" cy="165.177" rx="5.52236" ry="4.41677" transform="rotate(-13.1197 1209.96 165.177)" fill="#7AD160"/>
<ellipse cx="6.47494" cy="5.4733" rx="6.47494" ry="5.4733" transform="matrix(0.940563 -0.339618 0.287002 0.95793 1245.99 77.4958)" fill="#7AD160"/>
<ellipse cx="4.55936" cy="3.06735" rx="4.55936" ry="3.06735" transform="matrix(0.981384 -0.192055 0.156446 0.987686 1243.93 91.7341)" fill="#7AD160"/>
<ellipse cx="2.663" cy="2.26287" rx="2.663" ry="2.26287" transform="matrix(0.981384 -0.192055 0.156446 0.987686 1239.17 77.6902)" fill="#7AD160"/>
<ellipse cx="4.74688" cy="4.08523" rx="4.74688" ry="4.08523" transform="matrix(0.981384 -0.192055 0.156446 0.987686 1231.85 87.2903)" fill="#7AD160"/>
<circle cx="1245.42" cy="303.351" r="11.5679" fill="white"/>
<circle cx="1245.42" cy="304.149" r="7.71191" fill="#CA5D00"/>
<circle cx="1245.42" cy="304.149" r="5.01274" fill="black"/>
<circle cx="1249.28" cy="300.293" r="3.85595" fill="white" fill-opacity="0.4"/>
<circle cx="1276.36" cy="303.351" r="11.5679" fill="white"/>
<circle cx="1276.36" cy="304.149" r="7.71191" fill="#CA5D00"/>
<circle cx="1276.36" cy="304.149" r="5.01274" fill="black"/>
<circle cx="1280.22" cy="300.293" r="3.85595" fill="white" fill-opacity="0.4"/>
<path d="M1277.94 321.654C1277.94 325.213 1270.16 332.814 1260.55 332.814C1250.94 332.814 1243.15 325.213 1243.15 321.654C1243.15 318.094 1250.94 321.654 1260.55 321.654C1270.16 321.654 1277.94 318.094 1277.94 321.654Z" fill="black"/>
<path d="M1261.16 325.752C1265.61 325.752 1269.2 326.293 1269.2 330.72C1269.2 335.147 1265.61 341.784 1261.16 341.784C1256.72 341.784 1252.26 334.529 1252.26 330.102C1252.26 325.675 1256.72 325.752 1261.16 325.752Z" fill="#FD0D38"/>
<path d="M1091.24 440.147C1061.64 420.288 1053.73 334.433 1076.47 303.174C1093.85 279.275 1101.99 272.9 1126.82 277.373C1151.65 281.846 1163.68 268.235 1181.17 280.319C1206.14 297.569 1188.83 327.148 1190.71 357.434C1192.61 388.123 1209.41 411.761 1190.71 436.168C1167.07 467.027 1120.85 460.006 1091.24 440.147Z" fill="#D4AF7A"/>
<path d="M1190.71 436.168C1167.07 467.027 1120.85 460.006 1091.24 440.147C1076.54 430.286 1145.62 453.162 1169.42 433.887C1204.55 405.44 1138.46 352.011 1158.23 318.686C1178 285.361 1101.99 272.913 1126.82 277.385C1151.65 281.858 1163.68 268.236 1181.17 280.319C1206.14 297.569 1188.83 327.148 1190.71 357.434C1192.61 388.123 1209.41 411.761 1190.71 436.168Z" fill="#C5A06B"/>
<path d="M1105.79 340.483C1105.65 342.013 1099.76 344.766 1092.87 344.132C1085.98 343.499 1080.7 339.72 1080.84 338.191C1080.98 336.661 1086.27 340.347 1093.16 340.98C1100.05 341.613 1105.93 338.954 1105.79 340.483Z" fill="#C5A06B"/>
<path d="M1148.56 336.193C1148.77 337.715 1143.66 341.723 1136.8 342.66C1129.94 343.596 1123.94 341.105 1123.74 339.583C1123.53 338.061 1129.52 340.459 1136.37 339.523C1143.23 338.587 1148.35 334.671 1148.56 336.193Z" fill="#C5A06B"/>
<path d="M1166.65 426.789C1166.85 428.311 1162.32 432.241 1156.17 433.08C1150.02 433.92 1144.6 431.35 1144.39 429.828C1144.18 428.307 1149.6 430.783 1155.74 429.944C1161.89 429.104 1166.44 425.267 1166.65 426.789Z" fill="#C5A06B"/>
<path d="M1108.29 429.874C1108.06 430.879 1103.15 432.023 1097.69 430.785C1092.23 429.547 1088.29 426.396 1088.51 425.39C1088.74 424.385 1092.7 427.474 1098.16 428.712C1103.62 429.95 1108.51 428.869 1108.29 429.874Z" fill="#C5A06B"/>
<path d="M1128.97 307.82C1128.79 309.842 1120.26 313.45 1110.2 312.574C1100.13 311.699 1092.35 306.671 1092.52 304.65C1092.7 302.628 1100.49 307.531 1110.56 308.407C1120.62 309.282 1129.15 305.798 1128.97 307.82Z" fill="#C5A06B"/>
<circle cx="1097.69" cy="365.307" r="14.4814" fill="white"/>
<circle cx="1095.69" cy="363.307" r="9.65429" fill="#2F80ED"/>
<circle cx="1095.69" cy="363.307" r="6.27529" fill="black"/>
<circle cx="1100.52" cy="358.48" r="4.82715" fill="white" fill-opacity="0.4"/>
<circle cx="1138.87" cy="365.307" r="14.4814" fill="white"/>
<circle cx="1136.87" cy="363.307" r="9.65429" fill="#2F80ED"/>
<circle cx="1136.87" cy="363.307" r="6.27529" fill="black"/>
<circle cx="1141.7" cy="358.48" r="4.82715" fill="white" fill-opacity="0.4"/>
<path d="M1136.76 401.37C1136.76 404.93 1128.97 412.531 1119.36 412.531C1109.76 412.531 1101.97 404.93 1101.97 401.37C1101.97 397.811 1109.76 401.371 1119.36 401.371C1128.97 401.371 1136.76 397.811 1136.76 401.37Z" fill="black"/>
<path d="M1119.98 405.469C1124.42 405.469 1128.02 406.01 1128.02 410.437C1128.02 414.864 1124.42 421.501 1119.98 421.501C1115.54 421.501 1111.08 414.246 1111.08 409.819C1111.08 405.392 1115.54 405.469 1119.98 405.469Z" fill="#FD0D38"/>
<g clip-path="url(#clip1_1002_282)">
<path d="M1007.91 210.907C1009.77 224.84 1003.85 240.149 997.096 248.84C988.645 249.638 938.806 233.381 950.996 226.011C954.231 224.055 965.792 221.504 954.381 218.723C939.125 215.005 918.828 199.272 924.731 194.811C928.261 192.337 936.143 197.039 936.722 193.678C937.573 188.728 890.19 160.415 912.253 163.291C928.002 165.345 925.094 160.548 912.598 154.753C898.201 148.076 883.623 136.977 892.078 133.082C894.82 131.819 908.432 137.616 906.602 133.289C904.773 128.962 879.774 113.415 896.435 113.408C916.308 113.4 942.352 158.22 941.375 147.889C940.706 140.808 925.174 116.289 939.257 125.467C958.271 137.858 956.409 176.66 959.306 174.729C962.202 172.797 959.805 167.728 963.199 164.651C967.137 161.08 969.216 177.487 970.633 185.8C971.658 179.94 976.872 168.143 980.724 170.81C984.576 173.478 984.643 195.643 984.139 206.19C986.386 202.411 988.808 198.733 990.848 198.706C997.123 198.623 993.821 214.176 995.777 219.834C994.62 212.601 1006.94 203.622 1007.91 210.907Z" fill="#58860C"/>
<path d="M916.892 144.202C916.892 144.202 922.343 141.048 936.761 157.681C951.18 174.314 945.23 191.1 976.757 224.817C1008.28 258.533 997.371 250.997 983.212 237.23C964.616 219.149 955.809 214.641 944.938 181.754C934.066 148.868 916.892 144.202 916.892 144.202Z" fill="#91C325"/>
<path d="M1001.3 221.518C1003.12 235.456 1012.79 248.708 1021.57 255.349C1029.94 253.928 1073.86 225.304 1060.18 221.347C1056.55 220.297 1044.72 220.831 1055.02 215.186C1068.79 207.64 1084.31 187.182 1077.45 184.404C1073.4 182.93 1067.01 189.516 1065.58 186.419C1063.47 181.86 1101.89 142.229 1081.33 150.728C1066.65 156.796 1068.22 151.408 1078.78 142.571C1090.95 132.39 1102.16 117.891 1092.98 116.322C1090 115.813 1078.36 124.941 1079.01 120.287C1079.65 115.634 1099.76 94.137 1083.67 98.4505C1064.48 103.596 1050.95 153.635 1049.21 143.404C1048.02 136.393 1056.66 108.685 1045.44 121.201C1030.29 138.099 1042.15 175.09 1038.85 173.975C1035.56 172.861 1036.56 167.343 1032.48 165.252C1027.75 162.824 1030 179.209 1030.79 187.605C1028.28 182.211 1020.18 172.17 1017.15 175.745C1014.12 179.32 1019.81 200.743 1023.03 210.799C1019.88 207.732 1016.59 204.808 1014.61 205.311C1008.53 206.858 1015.75 221.023 1015.33 226.993C1014.57 219.708 1000.35 214.23 1001.3 221.518Z" fill="#58860C"/>
<path d="M1071.9 133.495C1071.9 133.495 1065.82 131.862 1056.21 151.664C1046.59 171.467 1056.69 186.136 1034.99 226.874C1013.28 267.612 1021.87 257.504 1031.97 240.535C1045.24 218.251 1052.58 211.615 1054.55 177.034C1056.52 142.454 1071.9 133.495 1071.9 133.495Z" fill="#91C325"/>
<path d="M1033.74 224.211C1035.76 227.61 1020.64 242.302 1012.82 249.223C995.372 240.814 951.247 194.026 973.007 201.913C994.767 209.8 942.763 142.458 962.069 148.203C981.375 153.948 986.232 161.532 981.537 155.178C961.761 128.417 952.807 107.084 963.161 109.94C983.861 115.649 991.147 135.267 985.584 117.983C977.912 94.1458 1000.76 60.0018 1007.45 64.356C1014.13 68.7103 999.155 109.222 1008.12 97.7861C1017.08 86.3502 1029.69 85.6655 1024.31 94.4538C1007.37 122.144 1014.15 152.185 1013.98 150.899C1013.81 149.612 1022.88 137.216 1031.98 137.063C1039.76 136.931 1012.13 191.232 1018.93 193.004C1023.15 194.102 1031.03 180.501 1038.43 180.397C1044.35 180.313 1028.69 209.408 1019.95 225.251C1023.82 222.631 1031.72 220.812 1033.74 224.211Z" fill="#91C325"/>
<path d="M990.666 116.141C990.666 116.141 997.107 115.908 1002.15 137.863C1007.19 159.817 993.751 172.13 1006.05 217.738C1018.35 263.347 1012.1 251.296 1005.92 232.055C997.799 206.786 992.005 198.483 997.975 163.544C1003.95 128.604 990.666 116.141 990.666 116.141Z" fill="#58860C"/>
<path d="M972.794 269.796C971.502 260.003 973.221 255.071 977.926 248.763C982.631 242.455 996.877 242.568 1010.46 240.777C1022.8 239.149 1034.4 232.939 1044.28 240.01C1051.3 245.034 1054.1 249.247 1055.85 258.839C1057.6 268.432 1041.79 452.622 1041.79 452.622L1005.43 359.218C1005.43 359.218 974.086 279.588 972.794 269.796Z" fill="#FFA058"/>
<path d="M972.794 269.796C971.502 260.003 973.221 255.071 977.926 248.763C982.631 242.455 996.877 242.568 1010.46 240.777C1022.8 239.149 1005.96 242.669 998.942 263.365C989.629 290.828 1015.55 331.372 1025.73 356.54C1035.9 381.709 1041.79 452.622 1041.79 452.622L1005.43 359.218C1005.43 359.218 974.085 279.588 972.794 269.796Z" fill="#FD7729"/>
<circle cx="1000.61" cy="271.548" r="11.7927" transform="rotate(-7.51476 1000.61 271.548)" fill="white"/>
<circle cx="1002.41" cy="272.762" r="7.86182" transform="rotate(-7.51476 1002.41 272.762)" fill="#27AE60"/>
<circle cx="1002.41" cy="272.762" r="5.11018" transform="rotate(-7.51476 1002.41 272.762)" fill="black"/>
<circle cx="1005.8" cy="268.351" r="3.93091" transform="rotate(-7.51476 1005.8 268.351)" fill="white" fill-opacity="0.4"/>
<circle cx="1029.45" cy="267.743" r="11.7927" transform="rotate(-7.51476 1029.45 267.743)" fill="white"/>
<circle cx="1031.25" cy="268.958" r="7.86182" transform="rotate(-7.51476 1031.25 268.958)" fill="#27AE60"/>
<circle cx="1031.25" cy="268.958" r="5.11018" transform="rotate(-7.51476 1031.25 268.958)" fill="black"/>
<circle cx="1034.63" cy="264.547" r="3.93091" transform="rotate(-7.51476 1034.63 264.547)" fill="white" fill-opacity="0.4"/>
<path d="M1027.56 288.178C1028.28 293.653 1024.43 298.677 1018.95 299.399C1013.48 300.122 1008.45 296.269 1007.73 290.793" stroke="black" stroke-width="3"/>
</g>
</g>
<defs>
<linearGradient id="paint0_linear_1002_282" x1="710.984" y1="0.0749512" x2="710.984" y2="480.075" gradientUnits="userSpaceOnUse">
<stop stop-color="#5598F3"/>
<stop offset="1" stop-color="#A4EADE"/>
</linearGradient>
<clipPath id="clip0_1002_282">
<rect width="1420" height="480" fill="white" transform="translate(0.983887 0.370361)"/>
</clipPath>
<clipPath id="clip1_1002_282">
<rect width="300" height="400" fill="white" transform="translate(835.519 81.4099) rotate(-7.51476)"/>
</clipPath>
</defs>
</svg>
