<svg width="301" height="400" viewBox="0 0 301 400" fill="none" xmlns="http://www.w3.org/2000/svg">
<path d="M93.0163 177.656C98.2116 193.083 126.09 167.89 135.677 175.261C135.692 163.076 153.17 151.295 149.69 146.631C147.431 143.604 140.278 148.119 140.45 143.77C140.955 131.011 135.546 106.402 124.951 108.27C122.579 108.689 121.637 112.16 119.237 111.949C112.695 111.373 114.909 97.9591 108.434 99.0601C105.767 99.5137 104.189 106.996 102.464 102.574C101.084 99.0366 96.8803 85.3471 90.1887 88.3541C86.9024 89.8309 87.5285 93.6337 84.5435 95.6513C79.1942 99.2668 66.7718 83.0804 63.5311 90.849C62.2529 93.9131 63.188 97.2112 63.5652 99.3503C63.9424 101.489 49.856 94.9026 43.5551 100.997C36.7287 107.6 45.5163 117.342 45.5163 117.342C45.5163 117.342 37.6717 121.866 37.6957 126.598C37.7282 132.999 50.3633 131.945 52.1322 134.363C53.9025 136.782 52.8386 137.595 54.0967 139.199C58.4137 144.705 64.5438 133.289 71.0209 133.326C81.3096 133.383 88.6517 152.903 88.6517 152.903C88.6517 152.903 79.004 152.646 78.0279 156.982C76.8764 162.097 84.4683 161.938 90.3221 162.376C87.7156 163.676 81.1243 165.258 82.3762 169.134C83.5451 172.753 88.6732 171.49 91.8847 171.238C91.8847 171.238 92.2041 175.244 93.0163 177.656Z" fill="#01A103"/>
<path fill-rule="evenodd" clip-rule="evenodd" d="M57.5423 112.746C57.5423 112.746 78.3543 115.065 89.0976 121.806C94.3679 125.112 98.587 128.511 102.531 132.249C100.5 132.158 98.7129 132.885 97.0259 133.571C95.5046 134.19 94.0647 134.775 92.6008 134.698C87.1867 134.413 83.1052 126.993 83.1052 126.993C83.1052 126.993 83.8028 128.948 84.4362 130.063C86.8016 134.23 89.4527 136.2 93.9437 136.683C95.5904 136.86 96.9018 136.277 98.2201 135.69C99.5021 135.12 100.791 134.546 102.401 134.667C103.645 134.76 104.938 135.223 106.139 135.827C108.707 138.477 111.259 141.313 114.026 144.407C117.187 147.942 120.074 151.904 122.694 156.072C122.022 156.03 121.365 156.019 120.774 156.06C117.666 156.276 115.291 157.882 113.064 159.388C111.264 160.605 109.561 161.756 107.646 162.057C100.562 163.17 93.2511 154.685 93.2511 154.685C93.2511 154.685 94.6886 157.024 95.8133 158.294C100.014 163.038 103.983 164.861 109.927 164.258C112.106 164.037 113.643 162.923 115.189 161.803C116.692 160.714 118.202 159.62 120.318 159.335C121.76 159.141 123.33 159.309 124.859 159.662C137.469 181.442 143.214 206.973 143.214 206.973L149.499 205.852C149.499 205.852 144.284 184.311 132.027 162.473C132.721 162.845 133.128 163.096 133.128 163.096L130.612 160.005C129.344 157.842 128.007 155.683 126.598 153.551L126.807 153.691C126.807 153.691 121.656 146.81 121.889 141.279C121.979 139.146 122.931 137.542 123.878 135.945C124.852 134.304 125.821 132.671 125.842 130.48C125.899 124.507 123.719 120.721 118.609 116.972C117.241 115.969 114.78 114.752 114.78 114.752C114.78 114.752 123.901 121.255 123.441 128.411C123.316 130.346 122.325 132.147 121.278 134.05C119.981 136.406 118.599 138.919 118.669 142.034C118.675 142.319 118.695 142.619 118.725 142.928C115.012 138.486 110.924 134.35 106.443 130.751C105.848 130.273 105.278 129.814 104.729 129.372C101.62 126.867 99.1718 124.895 96.5745 123.065C95.5964 121.778 94.7282 120.295 94.4129 118.81C94.0777 117.23 94.4733 115.876 94.8669 114.529C95.2716 113.144 95.6743 111.766 95.2777 110.158C94.1963 105.772 91.8884 103.409 87.4415 101.625C86.2508 101.147 84.2197 100.718 84.2197 100.718C84.2197 100.718 92.1217 103.766 93.1302 109.094C93.4028 110.534 93.0155 112.04 92.6062 113.63C92.0996 115.599 91.5594 117.699 92.196 119.967C92.2237 120.066 92.2541 120.166 92.2871 120.268C90.6578 119.287 88.8568 118.286 86.7506 117.203C76.4899 111.925 57.5423 112.746 57.5423 112.746Z" fill="#EA3C77"/>
<path d="M207.423 165.093C202.228 180.52 174.349 155.327 164.763 162.698C164.748 150.513 147.269 138.732 150.75 134.069C153.009 131.041 160.162 135.557 159.99 131.207C159.484 118.449 164.894 93.8396 175.488 95.7077C177.861 96.126 178.803 99.5974 181.202 99.3861C187.745 98.8103 185.531 85.3966 192.006 86.4976C194.673 86.9512 196.251 94.4338 197.976 90.0117C199.356 86.4741 203.559 72.7846 210.251 75.7916C213.537 77.2684 212.911 81.0712 215.896 83.0888C221.245 86.7043 233.668 70.5179 236.909 78.2865C238.187 81.3506 237.252 84.6487 236.875 86.7878C236.497 88.927 250.584 82.3401 256.885 88.4346C263.711 95.0374 254.923 104.779 254.923 104.779C254.923 104.779 262.768 109.303 262.744 114.036C262.711 120.437 250.076 119.383 248.308 121.8C246.537 124.219 247.601 125.033 246.343 126.637C242.026 132.142 235.896 120.727 229.419 120.763C219.13 120.821 211.788 140.341 211.788 140.341C211.788 140.341 221.436 140.084 222.412 144.42C223.563 149.535 215.971 149.376 210.118 149.814C212.724 151.114 219.315 152.695 218.063 156.571C216.895 160.19 211.767 158.927 208.555 158.676C208.555 158.676 208.236 162.681 207.423 165.093Z" fill="#01A103"/>
<path fill-rule="evenodd" clip-rule="evenodd" d="M242.897 100.183C242.897 100.183 222.085 102.503 211.342 109.243C206.072 112.55 201.853 115.948 197.909 119.686C199.94 119.596 201.727 120.322 203.414 121.008C204.935 121.627 206.375 122.213 207.839 122.136C213.253 121.851 217.335 114.431 217.335 114.431C217.335 114.431 216.637 116.385 216.004 117.501C213.638 121.667 210.987 123.637 206.496 124.121C204.849 124.298 203.538 123.714 202.22 123.128C200.938 122.557 199.649 121.984 198.039 122.104C196.794 122.197 195.502 122.66 194.301 123.264C191.733 125.914 189.181 128.75 186.414 131.845C183.253 135.38 180.366 139.342 177.745 143.51C178.417 143.467 179.075 143.457 179.665 143.498C182.774 143.713 185.149 145.319 187.376 146.826C189.175 148.042 190.878 149.194 192.794 149.495C199.877 150.607 207.189 142.122 207.189 142.122C207.189 142.122 205.751 144.461 204.626 145.731C200.426 150.475 196.456 152.299 190.513 151.696C188.334 151.475 186.796 150.361 185.251 149.241C183.748 148.152 182.238 147.057 180.121 146.773C178.679 146.579 177.11 146.747 175.58 147.099C162.971 168.88 157.225 194.411 157.225 194.411L150.941 193.289C150.941 193.289 156.155 171.749 168.413 149.91C167.719 150.283 167.311 150.533 167.311 150.533L169.828 147.442C171.096 145.279 172.433 143.121 173.842 140.988L173.633 141.129C173.633 141.129 178.784 134.248 178.551 128.717C178.461 126.583 177.509 124.979 176.561 123.383C175.587 121.741 174.619 120.108 174.598 117.918C174.541 111.944 176.721 108.158 181.831 104.41C183.199 103.406 185.66 102.189 185.66 102.189C185.66 102.189 176.539 108.692 176.999 115.848C177.123 117.783 178.115 119.585 179.162 121.488C180.458 123.844 181.841 126.356 181.771 129.471C181.765 129.757 181.745 130.057 181.715 130.365C185.428 125.924 189.515 121.788 193.997 118.189C194.592 117.711 195.161 117.252 195.711 116.81C198.82 114.305 201.268 112.333 203.865 110.502C204.843 109.216 205.711 107.733 206.027 106.247C206.362 104.668 205.966 103.314 205.573 101.967C205.168 100.581 204.765 99.2034 205.162 97.5953C206.243 93.2096 208.551 90.8469 212.998 89.0623C214.189 88.5845 216.22 88.1557 216.22 88.1557C216.22 88.1557 208.318 91.2039 207.31 96.5311C207.037 97.9714 207.424 99.477 207.833 101.068C208.34 103.037 208.88 105.137 208.244 107.405C208.216 107.503 208.186 107.604 208.153 107.705C209.782 106.724 211.583 105.724 213.689 104.641C223.95 99.3627 242.897 100.183 242.897 100.183Z" fill="#EA3C77"/>
<path d="M193.048 124.1C190.471 140.854 163.622 149.338 150.52 151.486C143.612 148.063 114.471 143.298 117.489 134.925C118.025 133.437 121.199 131.988 121.199 131.988C121.199 131.988 106.253 120.079 105.278 114.367C104.302 108.654 105.12 106.14 108.784 103.796C110.409 102.757 113.521 102.403 113.521 102.403C113.521 102.403 106.416 94.0099 108.784 85.6833C111.06 77.6829 116.153 84.0747 116.153 84.0747C116.153 84.0747 114.925 68.3278 118.497 60.744C126.908 42.8869 130.03 62.2265 135.396 49.7364C142.944 32.1667 144.731 54.3343 149.189 40.6801C153.648 27.0259 158.796 27.513 163.54 28.2798C168.263 29.0431 167.441 37.3362 170.367 38.4508C173.293 39.5654 173.273 34.4889 175.801 34.8282C182.19 35.6858 177.713 48.2812 183.533 51.803C190.515 56.0271 182.935 60.8448 187.115 61.5414C191.295 62.2381 191.971 68.6149 191.971 70.0023C191.971 80.541 184.863 96.0905 189.873 93.625C198.152 89.5513 194.362 106.333 191.971 110.203C190.811 112.081 189.424 118.501 189.424 118.501C189.424 118.501 194.698 113.376 193.048 124.1Z" fill="#33CE34"/>
<path fill-rule="evenodd" clip-rule="evenodd" d="M157.649 56.4105C157.649 56.4105 155.113 71.8188 154.054 81.762C153.066 91.0334 152.747 97.2759 152.413 105.067C153.123 104.101 154.208 102.733 155.21 101.898C157.035 100.376 159.189 100.008 161.21 99.6619C162.843 99.3825 164.388 99.1181 165.601 98.2732C170.088 95.1486 169.637 86.6204 169.637 86.6204C169.637 86.6204 170.079 88.6662 170.13 89.9588C170.32 94.7866 169.097 97.8846 165.507 100.688C164.19 101.716 162.756 101.914 161.315 102.113C159.913 102.306 158.504 102.5 157.189 103.46C153.779 105.948 152.12 112.288 152.12 112.288L152.111 112.168C152.092 112.592 152.073 113.023 152.053 113.461C151.754 120.139 151.585 127.64 151.505 135.284C152.522 134.141 153.886 132.729 155.124 131.854C157.689 130.04 160.569 129.779 163.27 129.535C165.451 129.338 167.516 129.151 169.204 128.164C175.447 124.515 175.746 113.224 175.746 113.224C175.746 113.224 176.115 115.968 176.046 117.677C175.791 124.062 173.854 128.019 168.826 131.339C166.983 132.556 165.072 132.666 163.15 132.777C161.282 132.885 159.404 132.994 157.569 134.121C154.85 135.792 152.754 139.183 151.457 141.781C151.345 166.995 152.053 191.68 152.053 191.68H145.831C145.831 191.68 145.68 159.805 147.101 129.232C145.801 126.627 143.682 123.192 140.932 121.512C139.095 120.389 137.216 120.285 135.347 120.182C133.425 120.076 131.514 119.971 129.667 118.758C124.632 115.45 122.685 111.498 122.415 105.113C122.343 103.404 122.706 100.659 122.706 100.659C122.706 100.659 123.03 111.95 129.282 115.584C130.973 116.567 133.038 116.748 135.221 116.94H135.221C137.922 117.177 140.803 117.43 143.373 119.238C144.787 120.233 146.367 121.924 147.408 123.121C147.818 115.547 148.334 108.194 148.983 101.582C149.117 100.225 149.244 98.9605 149.369 97.763C148.869 95.9124 148.064 93.8728 146.782 92.5127C145.665 91.3278 144.316 90.8781 142.973 90.4307C141.592 89.9707 140.219 89.513 139.113 88.2608C136.099 84.8456 135.466 81.5755 136.54 76.8644C136.828 75.603 137.639 73.673 137.639 73.673C137.639 73.673 135.628 81.974 139.465 85.8694C140.502 86.9226 141.972 87.4662 143.526 88.0405C145.449 88.7515 147.5 89.5095 149.015 91.3399C149.331 91.7221 149.645 92.1823 149.941 92.6652C150.556 87.6082 151.261 83.2378 152.486 76.7839C154.018 68.7203 157.649 56.4105 157.649 56.4105Z" fill="#EA3C77"/>
<path fill-rule="evenodd" clip-rule="evenodd" d="M208.402 296.979C222.956 285.716 231.97 270.096 231.97 252.832C231.97 218.506 196.337 190.68 152.382 190.68C108.427 190.68 72.7942 218.506 72.7942 252.832C72.7942 269.563 81.2598 284.749 95.0284 295.922C97.8507 298.213 100.896 300.932 104.136 303.825C113.657 312.326 124.865 322.335 137.071 327.405C137.135 332.224 136.95 339.476 135.555 344.642C132.628 355.483 120.889 370.038 120.889 370.038C120.889 370.038 141.972 358.772 151.318 348.546C157.165 342.148 163.062 331.075 164.36 328.574C176.882 324.25 188.448 314.127 198.343 305.468C201.926 302.331 205.291 299.387 208.402 296.979Z" fill="#8B0911"/>
<path d="M164.942 324.677C162.464 322.893 200.461 291.344 195.434 262.535C190.407 233.725 111.35 194.445 153.537 194.445C185.24 194.445 221.588 213.027 226.579 249.154C232.423 280.924 167.419 326.462 164.942 324.677Z" fill="white" fill-opacity="0.3"/>
<circle cx="132.982" cy="240.837" r="12.9418" fill="white"/>
<circle cx="131.771" cy="242.418" r="8.62788" fill="#27AE60"/>
<circle cx="131.771" cy="242.418" r="5.60812" fill="black"/>
<circle cx="136.085" cy="238.104" r="4.31394" fill="white" fill-opacity="0.4"/>
<circle cx="170.904" cy="240.837" r="12.9418" fill="white"/>
<circle cx="169.695" cy="242.418" r="8.62788" fill="#27AE60"/>
<circle cx="169.694" cy="242.418" r="5.60812" fill="black"/>
<circle cx="174.008" cy="238.104" r="4.31394" fill="white" fill-opacity="0.4"/>
<path d="M169.695 266.361C169.695 269.92 161.906 277.521 152.299 277.521C142.692 277.521 134.904 269.92 134.904 266.361C134.904 262.801 142.692 266.361 152.299 266.361C161.906 266.361 169.695 262.801 169.695 266.361Z" fill="black"/>
<path fill-rule="evenodd" clip-rule="evenodd" d="M142.265 274.756C142.257 274.677 142.254 274.598 142.254 274.518C142.254 271.757 146.751 269.518 152.299 269.518C157.847 269.518 162.344 271.757 162.344 274.518C162.344 274.598 162.34 274.677 162.333 274.756C159.498 276.371 156.036 277.521 152.299 277.521C148.562 277.521 145.1 276.371 142.265 274.756Z" fill="#FD0D38"/>
</svg>
