<svg width="301" height="400" viewBox="0 0 301 400" fill="none" xmlns="http://www.w3.org/2000/svg">
<path d="M124.086 124.803C125.403 128.884 127.596 138.747 128.587 146.684C131.271 168.179 124.972 170.43 132.571 194.13C134.286 199.479 140.039 207.497 143.194 207.481C146.339 207.466 153.207 198.335 154.318 186.059C156.662 160.136 151.439 136.399 151.439 136.399C151.439 136.399 150.481 125.63 154.318 124.804C188.585 117.425 163.944 350.224 163.944 350.224H117.497C117.497 350.224 110.556 82.88 124.086 124.803Z" fill="#7AD160"/>
<path d="M79.0296 126.458C75.5002 128.511 85.8464 146.62 89.279 159.787C93.3103 175.251 97.5599 199.81 97.5599 199.81C97.5599 199.81 96.9956 207.893 93.4424 208.32C90.5201 208.671 88.9587 206.234 87.0174 203.67C72.1077 183.981 58.9931 146.708 58.9931 146.708C58.9931 146.708 54.6806 134 52.2324 136.898C38.375 153.301 84.5966 225.422 100.489 279.566C116.381 333.71 134.417 324.061 134.417 324.061C134.417 324.061 108.266 109.446 79.0296 126.458Z" fill="#7AD160"/>
<path d="M215.538 128.169C216.855 131.385 212.073 138.895 210.105 145.836C204.775 164.631 201.784 172.452 199.379 194.594C199.067 197.473 198.156 200.612 200.523 201.563C202.881 202.511 211.226 190.432 215.538 183.833C219.85 177.234 232.05 146.223 232.05 146.223C232.05 146.223 235.009 136.925 238.163 137.406C266.328 141.705 220.056 203.869 191.303 255.149C162.55 306.428 156.902 276.778 156.902 276.778C156.902 276.778 202.734 96.9054 215.538 128.169Z" fill="#7AD160"/>
<path d="M99.7383 258.186C99.7383 255.977 101.529 254.186 103.738 254.186H182.293C184.503 254.186 186.293 255.977 186.293 258.186V347.261C186.293 349.319 184.741 351.038 182.693 351.222C174.899 351.925 156.114 353.484 142.99 353.483C129.884 353.483 111.125 351.924 103.339 351.223C101.29 351.038 99.7383 349.319 99.7383 347.262V258.186Z" fill="#7AD160"/>
<path d="M179.952 266.482C176.874 295.662 179.952 344.695 179.952 344.695C179.952 344.695 155.071 347.769 141.715 347.725C128.84 347.682 105.886 344.695 105.886 344.695C105.886 344.695 105.886 304.102 105.786 271.741C105.738 256.548 71.2608 204.409 82.1935 216.217C93.1261 228.024 98.6641 234.5 102.86 231.748C108.195 228.249 101.923 195.911 105.786 193.626C109.648 191.341 114.401 231.309 120.847 229.07C126.341 227.163 119.587 204.243 123.192 199.839C126.797 195.434 137.249 229.197 145.656 229.07C152.479 228.968 160.124 172.452 166.397 172.447C172.67 172.442 154.444 256.599 175.151 239.938C188.082 229.533 179.428 186.17 188.974 199.748C194.739 207.948 189.135 225.283 191.579 225.283C194.023 225.283 201.181 214.652 209.038 210.287C230.639 198.286 181.771 249.228 179.952 266.482Z" fill="white" fill-opacity="0.2"/>
<ellipse cx="100.662" cy="139.526" rx="33.6942" ry="25.8093" transform="rotate(-10.7181 100.662 139.526)" fill="#52A938"/>
<ellipse cx="253.511" cy="135.332" rx="31.6169" ry="24.0757" transform="rotate(-10.7181 253.511 135.332)" fill="#52A938"/>
<ellipse cx="164.875" cy="130.592" rx="46.6841" ry="31.3404" transform="rotate(14.6522 164.875 130.592)" fill="#52A938"/>
<ellipse cx="80.4561" cy="108.796" rx="43.7455" ry="32.3779" transform="rotate(14.6522 80.4561 108.796)" fill="#52A938"/>
<ellipse cx="124.969" cy="81.6365" rx="39.2643" ry="30.0763" transform="rotate(-2.02255 124.969 81.6365)" fill="#52A938"/>
<ellipse cx="178.49" cy="89.6779" rx="33.5834" ry="27.7906" transform="rotate(-2.02255 178.49 89.6779)" fill="#52A938"/>
<ellipse cx="49.054" cy="149.298" rx="35.3801" ry="29.4309" transform="rotate(-2.02255 49.054 149.298)" fill="#52A938"/>
<ellipse cx="36.4208" cy="122.856" rx="22.8229" ry="18.9483" transform="rotate(-2.02255 36.4208 122.856)" fill="#52A938"/>
<ellipse cx="254.573" cy="155.09" rx="18.3101" ry="15.2017" transform="rotate(-2.02255 254.573 155.09)" fill="#52A938"/>
<ellipse cx="124.294" cy="155" rx="15.5908" ry="12.1163" transform="rotate(-2.02255 124.294 155)" fill="#52A938"/>
<ellipse cx="231.644" cy="111.26" rx="35.9943" ry="32.1617" transform="rotate(-2.02255 231.644 111.26)" fill="#52A938"/>
<ellipse cx="221.614" cy="155.109" rx="29.6553" ry="23.6262" transform="rotate(5.81715 221.614 155.109)" fill="#52A938"/>
<ellipse cx="58.5608" cy="91.2222" rx="7.47966" ry="5.95421" transform="rotate(-21.3393 58.5608 91.2222)" fill="#7AD160"/>
<ellipse cx="57.8999" cy="108.646" rx="5.3042" ry="3.31628" transform="rotate(-13.1197 57.8999 108.646)" fill="#7AD160"/>
<ellipse cx="74.0751" cy="99.49" rx="5.52236" ry="4.41677" transform="rotate(-13.1197 74.0751 99.49)" fill="#7AD160"/>
<ellipse cx="30.49" cy="155.664" rx="5.3042" ry="3.31628" transform="rotate(42.2731 30.49 155.664)" fill="#7AD160"/>
<ellipse cx="47.2129" cy="163.777" rx="5.52236" ry="4.41677" transform="rotate(42.2731 47.2129 163.777)" fill="#7AD160"/>
<ellipse cx="165.92" cy="148.293" rx="7.47966" ry="5.95421" transform="rotate(-178.001 165.92 148.293)" fill="#7AD160"/>
<ellipse cx="173.429" cy="132.556" rx="5.3042" ry="3.31628" transform="rotate(-169.781 173.429 132.556)" fill="#7AD160"/>
<ellipse cx="154.95" cy="134.555" rx="5.52236" ry="4.41677" transform="rotate(-169.781 154.95 134.555)" fill="#7AD160"/>
<ellipse cx="234.275" cy="145.8" rx="7.47966" ry="5.95421" transform="rotate(-21.3393 234.275 145.8)" fill="#7AD160"/>
<ellipse cx="229.555" cy="160.434" rx="5.3042" ry="3.31628" transform="rotate(-13.1197 229.555 160.434)" fill="#7AD160"/>
<ellipse cx="220.765" cy="145.264" rx="3.09804" ry="2.44651" transform="rotate(-13.1197 220.765 145.264)" fill="#7AD160"/>
<ellipse cx="215.636" cy="157.386" rx="5.52236" ry="4.41677" transform="rotate(-13.1197 215.636 157.386)" fill="#7AD160"/>
<ellipse cx="10.5419" cy="6.66122" rx="10.5419" ry="6.66122" transform="matrix(0.961973 -0.273146 0.473461 0.880815 155.421 74.9939)" fill="#7AD160"/>
<ellipse cx="7.62639" cy="3.58822" rx="7.62639" ry="3.58822" transform="matrix(0.985954 -0.167016 0.305361 0.952237 153.23 91.3203)" fill="#7AD160"/>
<ellipse cx="243.253" cy="94.8464" rx="7.47966" ry="5.95421" transform="rotate(-21.3393 243.253 94.8464)" fill="#7AD160"/>
<ellipse cx="238.533" cy="109.48" rx="5.3042" ry="3.31628" transform="rotate(-13.1197 238.533 109.48)" fill="#7AD160"/>
<ellipse cx="213.103" cy="113.081" rx="5.52236" ry="4.41677" transform="rotate(-13.1197 213.103 113.081)" fill="#7AD160"/>
<ellipse cx="104.623" cy="119.528" rx="7.47966" ry="5.95421" transform="rotate(-21.3393 104.623 119.528)" fill="#7AD160"/>
<ellipse cx="116.689" cy="129.903" rx="5.3042" ry="3.31628" transform="rotate(-13.1197 116.689 129.903)" fill="#7AD160"/>
<ellipse cx="90.4267" cy="151.078" rx="5.52236" ry="4.41677" transform="rotate(-13.1197 90.4267 151.078)" fill="#7AD160"/>
<ellipse cx="6.47494" cy="5.4733" rx="6.47494" ry="5.4733" transform="matrix(0.940563 -0.339618 0.287002 0.95793 126.462 63.397)" fill="#7AD160"/>
<ellipse cx="4.55936" cy="3.06735" rx="4.55936" ry="3.06735" transform="matrix(0.981384 -0.192055 0.156446 0.987686 124.396 77.6353)" fill="#7AD160"/>
<ellipse cx="2.663" cy="2.26287" rx="2.663" ry="2.26287" transform="matrix(0.981384 -0.192055 0.156446 0.987686 119.64 63.5914)" fill="#7AD160"/>
<ellipse cx="4.74688" cy="4.08523" rx="4.74688" ry="4.08523" transform="matrix(0.981384 -0.192055 0.156446 0.987686 112.314 73.1915)" fill="#7AD160"/>
<circle cx="125.893" cy="289.252" r="11.5679" fill="white"/>
<circle cx="125.893" cy="290.051" r="7.71191" fill="#CA5D00"/>
<circle cx="125.893" cy="290.051" r="5.01274" fill="black"/>
<circle cx="129.749" cy="286.195" r="3.85595" fill="white" fill-opacity="0.4"/>
<circle cx="156.829" cy="289.252" r="11.5679" fill="white"/>
<circle cx="156.829" cy="290.051" r="7.71191" fill="#CA5D00"/>
<circle cx="156.829" cy="290.051" r="5.01274" fill="black"/>
<circle cx="160.685" cy="286.195" r="3.85595" fill="white" fill-opacity="0.4"/>
<path d="M158.412 307.555C158.412 311.114 150.624 318.715 141.017 318.715C131.409 318.715 123.621 311.114 123.621 307.555C123.621 303.995 131.409 307.555 141.017 307.555C150.624 307.555 158.412 303.995 158.412 307.555Z" fill="black"/>
<path d="M141.631 311.654C146.074 311.654 149.669 312.194 149.669 316.621C149.669 321.048 146.074 327.685 141.631 327.685C137.188 327.685 132.732 320.43 132.732 316.003C132.732 311.576 137.188 311.654 141.631 311.654Z" fill="#FD0D38"/>
</svg>
