<svg width="301" height="400" viewBox="0 0 301 400" fill="none" xmlns="http://www.w3.org/2000/svg">
<path d="M154.569 150.93C154.589 164.986 146.726 179.391 138.89 187.123C130.407 186.809 83.1224 164.174 96.1712 158.461C99.6338 156.945 111.43 155.928 100.48 151.679C85.8417 145.998 67.7761 127.745 74.2118 124.094C78.0355 122.103 85.2352 127.796 86.248 124.539C87.7394 119.743 44.4663 85.4762 65.9632 91.2136C81.3091 95.3094 79.0531 90.173 67.4222 82.7932C54.0223 74.2909 41.0209 61.3813 49.9123 58.6255C52.7964 57.7316 65.5334 65.2587 64.2852 60.7296C63.037 56.2005 40.2862 37.518 56.8048 39.6899C76.5089 42.2806 96.4668 90.1218 96.8502 79.7518C97.1129 72.6446 84.921 46.3048 97.6822 57.2455C114.912 72.0174 107.992 110.242 111.116 108.706C114.24 107.17 112.527 101.831 116.294 99.2239C120.665 96.1986 120.58 112.737 120.898 121.164C122.681 115.488 129.393 104.474 132.863 107.622C136.333 110.771 133.5 132.754 131.622 143.145C134.344 139.693 137.226 136.363 139.252 136.603C145.484 137.341 140.176 152.329 141.375 158.194C141.174 150.872 154.559 143.58 154.569 150.93Z" fill="#58860C"/>
<path d="M73.0597 72.8952C73.0597 72.8952 78.8756 70.4804 90.9952 88.8562C103.115 107.232 95.0208 123.097 121.868 160.647C148.715 198.197 138.881 189.298 126.643 173.797C110.572 153.439 102.43 147.819 95.9529 113.793C89.4756 79.7664 73.0597 72.8952 73.0597 72.8952Z" fill="#91C325"/>
<path d="M146.627 160.585C146.607 174.641 154.47 189.045 162.306 196.778C170.789 196.464 218.072 173.829 205.024 168.116C201.561 166.6 189.766 165.583 200.715 161.334C215.353 155.653 233.418 137.401 226.983 133.75C223.159 131.759 215.96 137.452 214.947 134.195C213.455 129.399 256.727 95.1333 235.231 100.871C219.886 104.966 222.141 99.8299 233.772 92.4503C247.172 83.9483 260.173 71.0389 251.282 68.2832C248.398 67.3893 235.661 74.9163 236.909 70.3873C238.157 65.8583 260.907 47.1762 244.389 49.3481C224.686 51.9387 204.728 99.7788 204.345 89.409C204.082 82.302 216.274 55.9628 203.513 66.9032C186.283 81.6748 193.203 119.899 190.079 118.363C186.955 116.827 188.668 111.487 184.902 108.881C180.531 105.855 180.615 122.393 180.298 130.82C178.515 125.145 171.803 114.131 168.333 117.279C164.863 120.427 167.695 142.41 169.574 152.801C166.852 149.348 163.97 146.019 161.944 146.259C155.712 146.997 161.02 161.985 159.821 167.849C160.022 160.527 146.637 153.236 146.627 160.585Z" fill="#58860C"/>
<path d="M228.135 82.5523C228.135 82.5523 222.319 80.1375 210.2 98.5128C198.081 116.888 206.174 132.752 179.328 170.302C152.482 207.851 162.316 198.953 174.553 183.451C190.624 163.094 198.765 157.474 205.242 123.449C211.72 89.4233 228.135 82.5523 228.135 82.5523Z" fill="#91C325"/>
<path d="M178.44 167.498C179.997 171.132 163.084 183.72 154.432 189.56C138.23 178.94 100.603 126.784 121.145 137.449C141.687 148.114 98.9359 74.5497 117.325 82.7702C135.714 90.9906 139.538 99.1443 135.714 92.2309C119.607 63.113 113.52 40.7927 123.411 44.9778C143.187 53.345 147.845 73.748 144.59 55.8843C140.102 31.2489 167.221 0.38655 173.277 5.57742C179.333 10.7683 159.19 48.9738 169.572 38.8084C179.954 28.6429 192.541 29.6126 186.061 37.6222C165.643 62.8594 168.433 93.5286 168.433 92.2309C168.433 90.9332 179.055 79.8311 188.09 80.8679C195.826 81.7556 161.331 131.976 167.842 134.623C171.874 136.262 181.468 123.809 188.822 124.674C194.705 125.366 175.371 152.162 164.629 166.725C168.81 164.634 176.883 163.865 178.44 167.498Z" fill="#91C325"/>
<path d="M149.869 54.7236C149.869 54.7236 156.285 55.3345 158.413 77.7601C160.54 100.186 145.605 110.635 151.834 157.46C158.062 204.285 153.448 191.521 149.834 171.636C145.086 145.522 140.428 136.533 150.917 102.675C161.405 68.8163 149.869 54.7236 149.869 54.7236Z" fill="#58860C"/>
<path d="M112.055 204.721C112.055 194.844 114.405 190.178 119.894 184.54C125.384 178.901 139.493 180.877 153.19 180.877C165.636 180.877 177.954 176.238 186.822 184.54C193.123 190.438 195.352 194.982 195.831 204.721C196.31 214.459 156.55 395 156.55 395L132.719 297.643C132.719 297.643 112.055 214.598 112.055 204.721Z" fill="#FFA058"/>
<path d="M112.055 204.721C112.055 194.844 114.405 190.178 119.894 184.54C125.384 178.901 139.493 180.877 153.19 180.877C165.636 180.877 148.485 182.164 138.82 201.765C125.995 227.774 146.393 271.36 153.19 297.643C159.987 323.926 156.55 395 156.55 395L132.719 297.643C132.719 297.643 112.055 214.598 112.055 204.721Z" fill="#FD7729"/>
<circle cx="139.401" cy="210.095" r="11.7927" fill="white"/>
<circle cx="141.032" cy="211.536" r="7.86182" fill="#27AE60"/>
<circle cx="141.032" cy="211.536" r="5.11018" fill="black"/>
<circle cx="144.963" cy="207.605" r="3.93091" fill="white" fill-opacity="0.4"/>
<circle cx="168.49" cy="210.095" r="11.7927" fill="white"/>
<circle cx="170.121" cy="211.536" r="7.86182" fill="#27AE60"/>
<circle cx="170.12" cy="211.536" r="5.11018" fill="black"/>
<circle cx="174.052" cy="207.605" r="3.93091" fill="white" fill-opacity="0.4"/>
<path d="M163.946 230.107C163.946 235.63 159.468 240.107 153.946 240.107C148.423 240.107 143.946 235.63 143.946 230.107" stroke="black" stroke-width="3"/>
</svg>
