<svg width="301" height="400" viewBox="0 0 301 400" fill="none" xmlns="http://www.w3.org/2000/svg">
<path d="M181.845 266.867C160.986 334.512 129.189 341.632 106.555 330.979C89.7191 323.055 85.2815 279.803 119.113 215.971C144.392 172.989 128.104 134.871 137.627 116.427C145.509 101.163 159.724 97.6877 170.995 101.163C187.224 103.412 203.153 127.845 201.873 160.798C200.593 193.752 196.667 218.797 181.845 266.867Z" fill="#67B14A"/>
<path d="M123.861 286.587C123.861 316.307 129.189 341.632 106.554 330.979C89.7189 323.056 85.2813 279.803 119.113 215.971C144.391 172.989 128.104 134.871 137.627 116.427C145.509 101.163 159.724 97.6877 170.994 101.163C187.166 106.149 180.688 127.695 170.994 144.434C161.301 161.174 123.861 256.868 123.861 286.587Z" fill="#4F9C34"/>
<path d="M145.615 100.659C145.615 100.659 152.7 86.4343 161.099 85.5668C167.521 84.9035 173.138 92.6022 179.593 92.4581C190.26 92.2201 188.984 76.0105 199.588 74.8299C208.791 73.8052 213.152 81.3115 213.152 81.3115L215.601 86.1032C215.601 86.1032 209.326 77.722 202.036 78.8543C193.892 80.1192 193.426 96.3986 182.879 99.171C174.392 101.402 168.863 92.6329 160.782 95.0843C153.407 97.322 147.826 109.818 147.826 109.818L145.615 100.659Z" fill="#9ACE85"/>
<path d="M135.944 119.957C135.944 119.957 125.57 116.343 120.997 119.971C117.5 122.745 118.44 129.266 115.178 132.312C109.787 137.346 102.589 128.713 96.7735 133.25C91.7266 137.189 93.1953 143.008 93.1953 143.008L94.2985 146.561C94.2985 146.561 93.3539 139.384 97.5064 136.423C102.146 133.116 110.239 140.942 116.795 137.219C122.07 134.223 120.57 127.216 125.75 124.525C130.479 122.07 139.275 125.555 139.275 125.555L135.944 119.957Z" fill="#9ACE85"/>
<path fill-rule="evenodd" clip-rule="evenodd" d="M145.944 69.4933C143.312 67.5652 142.068 64.8296 143.454 60.4903C143.653 59.8667 144.115 59.2446 144.686 58.686L144.684 58.6749C144.684 58.6749 144.752 58.6119 144.876 58.5061C145.76 57.6952 146.849 57.0403 147.634 56.7463C150.215 55.6072 153.691 55.5861 154.615 62.9095C154.967 65.7028 153.722 67.7584 152.02 69.5847C152.315 69.6917 152.61 69.7959 152.903 69.8991C153.25 70.0219 153.594 70.1433 153.929 70.2664C158.165 71.8244 162.838 67.7327 162.838 67.7327L160.848 70.2127C160.848 70.2127 157.416 74.0327 152.023 72.3009C151.313 72.0728 150.624 71.8339 149.964 71.5791C149.891 71.6462 149.818 71.7131 149.745 71.7801C147.003 74.2909 144.302 76.7641 145.173 80.7717C145.678 83.0932 147.509 84.9413 149.335 86.7834C151.27 88.7357 153.198 90.6813 153.533 93.1768C154.385 99.52 145.16 107.265 145.16 107.265L138.019 107.261C138.019 107.261 146.236 100.931 146.576 95.0991C146.763 91.9005 144.99 89.6721 143.191 87.4098C141.396 85.1532 139.575 82.8627 139.643 79.5419C139.73 75.3806 142.951 72.3011 145.944 69.4933ZM147.986 67.5342C146.393 66.2079 145.601 64.2363 146.762 60.8983C148.094 59.4819 150.137 58.0078 150.901 61.2046C151.448 63.4967 150.005 65.493 147.986 67.5342Z" fill="#9ACE85"/>
<path fill-rule="evenodd" clip-rule="evenodd" d="M112.756 107.88C113.435 104.828 120.452 102.484 128.1 101.636C127.763 93.4748 129.166 85.4422 132.28 84.33C135.606 83.1425 142.476 89.2768 147.548 96.3835C155.025 92.4778 163.356 90.2207 165.73 92.6722C167.93 94.9439 165.96 102.233 162.384 109.16C169.035 113.151 174.502 118.264 173.817 121.341C173.114 124.502 165.614 126.904 157.653 127.671C157.728 135.177 156.311 142.143 153.427 143.173C150.32 144.282 144.118 139.001 139.18 132.506C131.679 136.442 123.289 138.728 120.905 136.266C118.731 134.021 120.629 126.876 124.125 120.023C117.503 116.038 112.073 110.948 112.756 107.88Z" fill="#F8DE03"/>
<circle cx="142.677" cy="114.475" r="5.94893" transform="rotate(12.5496 142.677 114.475)" fill="#FFF46A"/>
<circle cx="155.066" cy="166.672" r="12.3892" fill="white"/>
<circle cx="155.066" cy="167.528" r="8.25947" fill="#CA5D00"/>
<circle cx="155.066" cy="167.527" r="5.36865" fill="black"/>
<circle cx="159.196" cy="163.398" r="4.12973" fill="white" fill-opacity="0.4"/>
<circle cx="186.487" cy="166.672" r="12.3892" fill="white"/>
<circle cx="186.487" cy="167.528" r="8.25947" fill="#CA5D00"/>
<circle cx="186.487" cy="167.527" r="5.36865" fill="black"/>
<circle cx="190.617" cy="163.398" r="4.12973" fill="white" fill-opacity="0.4"/>
<path d="M180.435 185.78C180.435 191.303 175.957 195.78 170.435 195.78C164.912 195.78 160.435 191.303 160.435 185.78" stroke="black" stroke-width="3"/>
</svg>
