<svg width="301" height="400" viewBox="0 0 301 400" fill="none" xmlns="http://www.w3.org/2000/svg">
<path d="M88.8918 178.647C92.1578 126.391 116.216 100.339 152.171 105.162C194.017 110.775 172.718 178.647 186.481 204.628C196.429 223.407 215.545 254.075 213.265 293.688C212.444 307.94 200.4 339.794 152.171 337.356C88.8916 334.156 84.8094 243.968 88.8918 178.647Z" fill="#7F317A"/>
<path d="M116.888 175.4C115.616 212.574 137.078 258.545 124.634 258.119C112.19 257.694 103.133 227.213 104.405 190.038C105.676 152.863 116.795 123.072 129.239 123.498C141.683 123.924 118.159 138.225 116.888 175.4Z" fill="white" fill-opacity="0.2"/>
<path d="M163.176 193.467C169.892 237.518 205.318 286.903 190.572 289.151C175.826 291.4 158.428 257.512 151.712 213.461C144.996 169.41 151.506 131.877 166.251 129.629C180.997 127.381 156.46 149.417 163.176 193.467Z" fill="white" fill-opacity="0.3"/>
<circle cx="127.303" cy="169.48" r="14.4814" fill="white"/>
<circle cx="129.305" cy="171.249" r="9.65429" fill="#2F80ED"/>
<circle cx="129.305" cy="171.249" r="6.27529" fill="black"/>
<circle cx="134.132" cy="166.422" r="4.82715" fill="white" fill-opacity="0.4"/>
<circle cx="163.023" cy="169.48" r="14.4814" fill="white"/>
<circle cx="165.026" cy="171.249" r="9.65429" fill="#2F80ED"/>
<circle cx="165.026" cy="171.249" r="6.27529" fill="black"/>
<circle cx="169.854" cy="166.422" r="4.82715" fill="white" fill-opacity="0.4"/>
<path d="M163.023 206.303C163.023 209.862 155.235 217.463 145.628 217.463C136.021 217.463 128.232 209.862 128.232 206.303C128.232 202.744 136.021 206.303 145.628 206.303C155.235 206.303 163.023 202.744 163.023 206.303Z" fill="black"/>
<path fill-rule="evenodd" clip-rule="evenodd" d="M135.594 214.698C135.586 214.619 135.583 214.54 135.583 214.461C135.583 211.699 140.08 209.461 145.627 209.461C151.175 209.461 155.673 211.699 155.673 214.461C155.673 214.54 155.669 214.62 155.662 214.698C152.827 216.313 149.365 217.463 145.628 217.463C141.891 217.463 138.429 216.313 135.594 214.698Z" fill="#FD0D38"/>
<path d="M141.723 99.8688C147.826 99.0551 164.597 63.1018 166.642 62.7447C171.794 61.3405 179.864 66.5981 179.864 70.1186C179.864 72.6741 161.357 100.031 166.642 104.7C192.832 127.839 175.288 140.044 182.662 141.57C190.036 143.095 189.448 132.218 191.228 133.49C193.008 134.761 194.574 147.494 178.338 150.215C164.43 152.546 154.29 123.516 154.29 128.602C154.29 133.687 148.227 143.048 140.568 147.494C134.084 151.258 131.527 152.898 123.346 160.883C121.152 148.708 120.417 143.756 120.417 141.18C120.417 131.999 125.409 130.746 125.917 121.846C126.426 112.947 80.1883 146.655 94.1733 128.602C123.352 90.9342 134.095 100.886 141.723 99.8688Z" fill="#90A73C"/>
<path d="M138.992 107.157C148.114 106.05 125.09 90.1114 97.3102 129.499C89.6816 140.315 109.553 110.73 138.992 107.157Z" fill="#ADC648"/>
<path d="M162.403 114.273C157.824 110.671 164.811 96.3437 179.345 129.911C183.336 139.128 165.117 116.407 162.403 114.273Z" fill="#ADC648"/>
<ellipse cx="172.489" cy="67.6783" rx="6.48407" ry="2.43012" transform="rotate(27.7111 172.489 67.6783)" fill="#ADC648"/>
<path d="M140.325 138.305C145.457 135.615 153.364 123.894 149.814 121.027C146.616 118.445 144.683 118.05 139.111 121.027C130.008 125.892 125.823 153.735 128.467 147.442C131.657 139.853 133.98 141.631 140.325 138.305Z" fill="#ADC648"/>
</svg>
