<svg width="152" height="64" viewBox="0 0 152 64" fill="none" xmlns="http://www.w3.org/2000/svg">
<path d="M97.2373 7.40208V35.3344H93.8554V10.4026H79.782V35.3344H76.4V7.40208H97.2373Z" fill="black"/>
<path d="M97.2373 7.40208V35.3344H93.8554V10.4026H79.782V35.3344H76.4V7.40208H97.2373Z" fill="#F5F5F5"/>
<path d="M104.059 35.3344V7.40208H113.496C115.687 7.40208 117.478 7.7976 118.869 8.58865C120.269 9.37062 121.306 10.4299 121.978 11.7665C122.651 13.1031 122.987 14.5943 122.987 16.24C122.987 17.8858 122.651 19.3815 121.978 20.7272C121.315 22.0729 120.287 23.1458 118.896 23.946C117.505 24.737 115.723 25.1326 113.551 25.1326H106.787V22.132H113.442C114.942 22.132 116.146 21.8729 117.055 21.3546C117.964 20.8363 118.624 20.1362 119.033 19.2542C119.451 18.3632 119.66 17.3584 119.66 16.24C119.66 15.1217 119.451 14.1215 119.033 13.2395C118.624 12.3575 117.96 11.6665 117.042 11.1664C116.123 10.6572 114.905 10.4026 113.387 10.4026H107.441V35.3344H104.059Z" fill="black"/>
<path d="M104.059 35.3344V7.40208H113.496C115.687 7.40208 117.478 7.7976 118.869 8.58865C120.269 9.37062 121.306 10.4299 121.978 11.7665C122.651 13.1031 122.987 14.5943 122.987 16.24C122.987 17.8858 122.651 19.3815 121.978 20.7272C121.315 22.0729 120.287 23.1458 118.896 23.946C117.505 24.737 115.723 25.1326 113.551 25.1326H106.787V22.132H113.442C114.942 22.132 116.146 21.8729 117.055 21.3546C117.964 20.8363 118.624 20.1362 119.033 19.2542C119.451 18.3632 119.66 17.3584 119.66 16.24C119.66 15.1217 119.451 14.1215 119.033 13.2395C118.624 12.3575 117.96 11.6665 117.042 11.1664C116.123 10.6572 114.905 10.4026 113.387 10.4026H107.441V35.3344H104.059Z" fill="#F5F5F5"/>
<path d="M152 21.3683C152 24.3142 151.468 26.8602 150.405 29.006C149.341 31.1518 147.882 32.8067 146.027 33.9705C144.172 35.1344 142.054 35.7163 139.672 35.7163C137.29 35.7163 135.172 35.1344 133.317 33.9705C131.463 32.8067 130.004 31.1518 128.94 29.006C127.876 26.8602 127.344 24.3142 127.344 21.3683C127.344 18.4223 127.876 15.8763 128.94 13.7305C130.004 11.5847 131.463 9.92981 133.317 8.76596C135.172 7.60211 137.29 7.02019 139.672 7.02019C142.054 7.02019 144.172 7.60211 146.027 8.76596C147.882 9.92981 149.341 11.5847 150.405 13.7305C151.468 15.8763 152 18.4223 152 21.3683ZM148.727 21.3683C148.727 18.9496 148.323 16.9084 147.514 15.2444C146.714 13.5805 145.627 12.3212 144.254 11.4665C142.891 10.6117 141.363 10.1844 139.672 10.1844C137.981 10.1844 136.449 10.6117 135.077 11.4665C133.713 12.3212 132.626 13.5805 131.817 15.2444C131.017 16.9084 130.617 18.9496 130.617 21.3683C130.617 23.7869 131.017 25.8282 131.817 27.4921C132.626 29.156 133.713 30.4154 135.077 31.2701C136.449 32.1248 137.981 32.5521 139.672 32.5521C141.363 32.5521 142.891 32.1248 144.254 31.2701C145.627 30.4154 146.714 29.156 147.514 27.4921C148.323 25.8282 148.727 23.7869 148.727 21.3683Z" fill="black"/>
<path d="M152 21.3683C152 24.3142 151.468 26.8602 150.405 29.006C149.341 31.1518 147.882 32.8067 146.027 33.9705C144.172 35.1344 142.054 35.7163 139.672 35.7163C137.29 35.7163 135.172 35.1344 133.317 33.9705C131.463 32.8067 130.004 31.1518 128.94 29.006C127.876 26.8602 127.344 24.3142 127.344 21.3683C127.344 18.4223 127.876 15.8763 128.94 13.7305C130.004 11.5847 131.463 9.92981 133.317 8.76596C135.172 7.60211 137.29 7.02019 139.672 7.02019C142.054 7.02019 144.172 7.60211 146.027 8.76596C147.882 9.92981 149.341 11.5847 150.405 13.7305C151.468 15.8763 152 18.4223 152 21.3683ZM148.727 21.3683C148.727 18.9496 148.323 16.9084 147.514 15.2444C146.714 13.5805 145.627 12.3212 144.254 11.4665C142.891 10.6117 141.363 10.1844 139.672 10.1844C137.981 10.1844 136.449 10.6117 135.077 11.4665C133.713 12.3212 132.626 13.5805 131.817 15.2444C131.017 16.9084 130.617 18.9496 130.617 21.3683C130.617 23.7869 131.017 25.8282 131.817 27.4921C132.626 29.156 133.713 30.4154 135.077 31.2701C136.449 32.1248 137.981 32.5521 139.672 32.5521C141.363 32.5521 142.891 32.1248 144.254 31.2701C145.627 30.4154 146.714 29.156 147.514 27.4921C148.323 25.8282 148.727 23.7869 148.727 21.3683Z" fill="#F5F5F5"/>
<path d="M90.4538 54.8172C90.4538 56.726 90.1047 58.367 89.4064 59.7403C88.7082 61.1078 87.7511 62.1611 86.535 62.9002C85.3248 63.6334 83.9487 64 82.4068 64C80.8591 64 79.4773 63.6334 78.2612 62.9002C77.051 62.1611 76.0967 61.1049 75.3985 59.7316C74.7003 58.3583 74.3512 56.7201 74.3512 54.8172C74.3512 52.9085 74.7003 51.2704 75.3985 49.9029C76.0967 48.5296 77.051 47.4763 78.2612 46.743C79.4773 46.004 80.8591 45.6345 82.4068 45.6345C83.9487 45.6345 85.3248 46.004 86.535 46.743C87.7511 47.4763 88.7082 48.5296 89.4064 49.9029C90.1047 51.2704 90.4538 52.9085 90.4538 54.8172ZM87.7831 54.8172C87.7831 53.3624 87.5474 52.1375 87.0761 51.1424C86.6107 50.1415 85.9706 49.385 85.1561 48.8729C84.3473 48.355 83.4309 48.096 82.4068 48.096C81.377 48.096 80.4577 48.355 79.6489 48.8729C78.8401 49.385 78.2001 50.1415 77.7288 51.1424C77.2633 52.1375 77.0306 53.3624 77.0306 54.8172C77.0306 56.2721 77.2633 57.4999 77.7288 58.5008C78.2001 59.4959 78.8401 60.2524 79.6489 60.7703C80.4577 61.2824 81.377 61.5385 82.4068 61.5385C83.4309 61.5385 84.3473 61.2824 85.1561 60.7703C85.9706 60.2524 86.6107 59.4959 87.0761 58.5008C87.5474 57.4999 87.7831 56.2721 87.7831 54.8172Z" fill="black"/>
<path d="M90.4538 54.8172C90.4538 56.726 90.1047 58.367 89.4064 59.7403C88.7082 61.1078 87.7511 62.1611 86.535 62.9002C85.3248 63.6334 83.9487 64 82.4068 64C80.8591 64 79.4773 63.6334 78.2612 62.9002C77.051 62.1611 76.0967 61.1049 75.3985 59.7316C74.7003 58.3583 74.3512 56.7201 74.3512 54.8172C74.3512 52.9085 74.7003 51.2704 75.3985 49.9029C76.0967 48.5296 77.051 47.4763 78.2612 46.743C79.4773 46.004 80.8591 45.6345 82.4068 45.6345C83.9487 45.6345 85.3248 46.004 86.535 46.743C87.7511 47.4763 88.7082 48.5296 89.4064 49.9029C90.1047 51.2704 90.4538 52.9085 90.4538 54.8172ZM87.7831 54.8172C87.7831 53.3624 87.5474 52.1375 87.0761 51.1424C86.6107 50.1415 85.9706 49.385 85.1561 48.8729C84.3473 48.355 83.4309 48.096 82.4068 48.096C81.377 48.096 80.4577 48.355 79.6489 48.8729C78.8401 49.385 78.2001 50.1415 77.7288 51.1424C77.2633 52.1375 77.0306 53.3624 77.0306 54.8172C77.0306 56.2721 77.2633 57.4999 77.7288 58.5008C78.2001 59.4959 78.8401 60.2524 79.6489 60.7703C80.4577 61.2824 81.377 61.5385 82.4068 61.5385C83.4309 61.5385 84.3473 61.2824 85.1561 60.7703C85.9706 60.2524 86.6107 59.4959 87.0761 58.5008C87.5474 57.4999 87.7831 56.2721 87.7831 54.8172Z" fill="#F5F5F5"/>
<path d="M93.8161 63.7556V45.8789H100.362C101.63 45.8789 102.681 46.0884 103.513 46.5074C104.345 46.9205 104.967 47.4821 105.38 48.192C105.793 48.8962 106 49.6905 106 50.575C106 51.3199 105.863 51.9484 105.59 52.4604C105.316 52.9667 104.95 53.3741 104.49 53.6825C104.036 53.9851 103.536 54.2062 102.989 54.3459V54.5205C103.582 54.5496 104.161 54.7416 104.726 55.0966C105.296 55.4457 105.767 55.9433 106.14 56.5892C106.512 57.2351 106.698 58.0207 106.698 58.946C106.698 59.8596 106.483 60.6801 106.052 61.4075C105.628 62.1291 104.97 62.7023 104.08 63.1271C103.19 63.5461 102.052 63.7556 100.667 63.7556H93.8161ZM96.513 61.4424H100.405C101.697 61.4424 102.622 61.1922 103.181 60.6918C103.739 60.1913 104.019 59.5657 104.019 58.8151C104.019 58.2506 103.876 57.7327 103.591 57.2613C103.306 56.79 102.899 56.4146 102.369 56.1353C101.846 55.856 101.223 55.7163 100.501 55.7163H96.513V61.4424ZM96.513 53.6127H100.126C100.731 53.6127 101.275 53.4963 101.758 53.2635C102.247 53.0307 102.634 52.7049 102.919 52.2859C103.21 51.8611 103.355 51.3606 103.355 50.7845C103.355 50.0455 103.097 49.4257 102.579 48.9253C102.061 48.4248 101.267 48.1746 100.196 48.1746H96.513V53.6127Z" fill="black"/>
<path d="M93.8161 63.7556V45.8789H100.362C101.63 45.8789 102.681 46.0884 103.513 46.5074C104.345 46.9205 104.967 47.4821 105.38 48.192C105.793 48.8962 106 49.6905 106 50.575C106 51.3199 105.863 51.9484 105.59 52.4604C105.316 52.9667 104.95 53.3741 104.49 53.6825C104.036 53.9851 103.536 54.2062 102.989 54.3459V54.5205C103.582 54.5496 104.161 54.7416 104.726 55.0966C105.296 55.4457 105.767 55.9433 106.14 56.5892C106.512 57.2351 106.698 58.0207 106.698 58.946C106.698 59.8596 106.483 60.6801 106.052 61.4075C105.628 62.1291 104.97 62.7023 104.08 63.1271C103.19 63.5461 102.052 63.7556 100.667 63.7556H93.8161ZM96.513 61.4424H100.405C101.697 61.4424 102.622 61.1922 103.181 60.6918C103.739 60.1913 104.019 59.5657 104.019 58.8151C104.019 58.2506 103.876 57.7327 103.591 57.2613C103.306 56.79 102.899 56.4146 102.369 56.1353C101.846 55.856 101.223 55.7163 100.501 55.7163H96.513V61.4424ZM96.513 53.6127H100.126C100.731 53.6127 101.275 53.4963 101.758 53.2635C102.247 53.0307 102.634 52.7049 102.919 52.2859C103.21 51.8611 103.355 51.3606 103.355 50.7845C103.355 50.0455 103.097 49.4257 102.579 48.9253C102.061 48.4248 101.267 48.1746 100.196 48.1746H96.513V53.6127Z" fill="#F5F5F5"/>
<path d="M125.423 54.8172C125.423 56.726 125.074 58.367 124.376 59.7403C123.678 61.1078 122.721 62.1611 121.505 62.9002C120.294 63.6334 118.918 64 117.376 64C115.829 64 114.447 63.6334 113.231 62.9002C112.021 62.1611 111.066 61.1049 110.368 59.7316C109.67 58.3583 109.321 56.7201 109.321 54.8172C109.321 52.9085 109.67 51.2704 110.368 49.9029C111.066 48.5296 112.021 47.4763 113.231 46.743C114.447 46.004 115.829 45.6345 117.376 45.6345C118.918 45.6345 120.294 46.004 121.505 46.743C122.721 47.4763 123.678 48.5296 124.376 49.9029C125.074 51.2704 125.423 52.9085 125.423 54.8172ZM122.753 54.8172C122.753 53.3624 122.517 52.1375 122.046 51.1424C121.58 50.1415 120.94 49.385 120.126 48.8729C119.317 48.355 118.401 48.096 117.376 48.096C116.347 48.096 115.427 48.355 114.619 48.8729C113.81 49.385 113.17 50.1415 112.698 51.1424C112.233 52.1375 112 53.3624 112 54.8172C112 56.2721 112.233 57.4999 112.698 58.5008C113.17 59.4959 113.81 60.2524 114.619 60.7703C115.427 61.2824 116.347 61.5385 117.376 61.5385C118.401 61.5385 119.317 61.2824 120.126 60.7703C120.94 60.2524 121.58 59.4959 122.046 58.5008C122.517 57.4999 122.753 56.2721 122.753 54.8172Z" fill="black"/>
<path d="M125.423 54.8172C125.423 56.726 125.074 58.367 124.376 59.7403C123.678 61.1078 122.721 62.1611 121.505 62.9002C120.294 63.6334 118.918 64 117.376 64C115.829 64 114.447 63.6334 113.231 62.9002C112.021 62.1611 111.066 61.1049 110.368 59.7316C109.67 58.3583 109.321 56.7201 109.321 54.8172C109.321 52.9085 109.67 51.2704 110.368 49.9029C111.066 48.5296 112.021 47.4763 113.231 46.743C114.447 46.004 115.829 45.6345 117.376 45.6345C118.918 45.6345 120.294 46.004 121.505 46.743C122.721 47.4763 123.678 48.5296 124.376 49.9029C125.074 51.2704 125.423 52.9085 125.423 54.8172ZM122.753 54.8172C122.753 53.3624 122.517 52.1375 122.046 51.1424C121.58 50.1415 120.94 49.385 120.126 48.8729C119.317 48.355 118.401 48.096 117.376 48.096C116.347 48.096 115.427 48.355 114.619 48.8729C113.81 49.385 113.17 50.1415 112.698 51.1424C112.233 52.1375 112 53.3624 112 54.8172C112 56.2721 112.233 57.4999 112.698 58.5008C113.17 59.4959 113.81 60.2524 114.619 60.7703C115.427 61.2824 116.347 61.5385 117.376 61.5385C118.401 61.5385 119.317 61.2824 120.126 60.7703C120.94 60.2524 121.58 59.4959 122.046 58.5008C122.517 57.4999 122.753 56.2721 122.753 54.8172Z" fill="#F5F5F5"/>
<path d="M129.144 45.8789H131.805V51.7796C131.805 52.6001 131.948 53.249 132.233 53.7261C132.518 54.1975 132.931 54.5321 133.472 54.73C134.019 54.9278 134.683 55.0267 135.462 55.0267C135.876 55.0267 136.294 55.0122 136.719 54.9831C137.15 54.9482 137.577 54.9016 138.002 54.8434C138.427 54.7794 138.837 54.7067 139.233 54.6252C139.634 54.5379 140.007 54.4419 140.35 54.3372V56.6328C140.012 56.7434 139.655 56.8423 139.276 56.9296C138.904 57.0111 138.514 57.0838 138.107 57.1478C137.7 57.206 137.275 57.2526 136.833 57.2875C136.39 57.3224 135.934 57.3399 135.462 57.3399C134.159 57.3399 133.033 57.1537 132.085 56.7812C131.142 56.403 130.415 55.8065 129.903 54.9918C129.397 54.1771 129.144 53.1064 129.144 51.7796V45.8789ZM139.948 45.8789H142.619V63.7556H139.948V45.8789Z" fill="black"/>
<path d="M129.144 45.8789H131.805V51.7796C131.805 52.6001 131.948 53.249 132.233 53.7261C132.518 54.1975 132.931 54.5321 133.472 54.73C134.019 54.9278 134.683 55.0267 135.462 55.0267C135.876 55.0267 136.294 55.0122 136.719 54.9831C137.15 54.9482 137.577 54.9016 138.002 54.8434C138.427 54.7794 138.837 54.7067 139.233 54.6252C139.634 54.5379 140.007 54.4419 140.35 54.3372V56.6328C140.012 56.7434 139.655 56.8423 139.276 56.9296C138.904 57.0111 138.514 57.0838 138.107 57.1478C137.7 57.206 137.275 57.2526 136.833 57.2875C136.39 57.3224 135.934 57.3399 135.462 57.3399C134.159 57.3399 133.033 57.1537 132.085 56.7812C131.142 56.403 130.415 55.8065 129.903 54.9918C129.397 54.1771 129.144 53.1064 129.144 51.7796V45.8789ZM139.948 45.8789H142.619V63.7556H139.948V45.8789Z" fill="#F5F5F5"/>
<path d="M149.459 45.8789V63.7556H146.763V45.8789H149.459Z" fill="black"/>
<path d="M149.459 45.8789V63.7556H146.763V45.8789H149.459Z" fill="#F5F5F5"/>
<path d="M14.8079 27.5925C15.3491 26.6795 15.9517 25.8045 16.6115 24.9737C13.6214 19.6647 10.5839 14.7843 8.02096 10.9513C4.74613 5.92798 2.23068 2.73782 2.23068 2.73782C2.23068 2.73782 4.74613 5.83276 8.35319 10.737C10.9873 14.2843 14.2384 19.0457 17.181 24.0452C19.8277 20.8357 22.9971 18.0988 26.5546 15.9508C18.6386 9.20372 9.66637 3.81429 0 0C1.0087 3.89114 1.57394 7.88455 1.68488 11.9036C2.37307 24.6642 0.664458 43.7338 13.9774 49.0904C12.4864 45.6773 11.7865 41.9694 11.9304 38.2457C12.0743 34.522 13.0581 30.8796 14.8079 27.5925Z" fill="#64B900"/>
<path d="M18.2487 51.5425C18.1301 51.7806 17.9877 51.9948 17.8928 52.2091C17.4419 52.9709 17.0622 53.709 16.7062 54.447C16.3503 55.185 16.0181 55.8516 15.757 56.5182C15.496 57.1848 15.2112 57.8038 14.9739 58.399C14.7366 58.9942 14.5942 59.5417 14.4281 60.0417C14.0721 61.0178 13.9535 61.851 13.7874 62.4224L13.5975 63.2794L16.6113 63.7556C16.6113 63.7556 16.6113 63.4937 16.7774 62.9938C16.899 62.262 17.0654 61.5385 17.2758 60.8273C17.2758 60.375 17.5368 59.875 17.7029 59.3036C17.8691 58.7323 18.1301 58.1609 18.3437 57.5419C18.5572 56.9229 18.8657 56.2325 19.1742 55.5421C19.4827 54.8517 19.815 54.1137 20.1947 53.3757C20.5743 52.6376 20.9778 51.852 21.4286 50.9949C21.8795 50.1379 22.3541 49.3761 22.8762 48.6142C23.3983 47.8524 23.9204 46.9477 24.5136 46.1145C25.1069 45.2812 25.6764 44.4242 26.3172 43.5671C28.9706 39.9962 31.8228 36.5784 34.8602 33.33C40.5989 27.2413 46.7094 21.5165 53.1565 16.1889C58.4485 11.8321 62.1742 9.16574 62.1742 9.16574C62.1742 9.16574 58.401 11.9036 53.2752 16.4984C47.0177 22.0163 41.1129 27.9243 35.5958 34.1871C32.6599 37.5315 29.9108 41.0365 27.3613 44.686C26.768 45.5431 26.1748 46.424 25.6527 47.281C25.1306 48.1381 24.5611 48.9951 24.0865 49.8284C23.6119 50.6616 23.1373 51.4711 22.7338 52.2091C22.3304 52.9471 22.0456 53.5423 21.7371 54.1851C49.8342 65.3507 54.5804 36.5678 59.9672 19.3314C61.2577 14.9752 63.0412 10.7816 65.2829 6.83264C65.2829 6.83264 -0.498473 13.451 18.2487 51.5425Z" fill="#64B900"/>
</svg>
