<svg width="301" height="400" viewBox="0 0 301 400" fill="none" xmlns="http://www.w3.org/2000/svg">
<path d="M220.305 268.27C229.305 310.187 189.091 349.88 150.587 349.88C112.083 349.88 70.8695 310.187 80.8695 268.27C90.8695 226.353 132.67 186.66 150.587 186.66C168.504 186.66 211.305 226.353 220.305 268.27Z" fill="#FF9137"/>
<path d="M165.763 348.764C165.763 352.013 158.914 354.648 150.466 354.648C142.018 354.648 135.169 352.013 135.169 348.764C135.169 345.514 142.018 347.604 150.466 347.604C158.914 347.604 165.763 345.514 165.763 348.764Z" fill="#D15811"/>
<ellipse cx="137.744" cy="230.523" rx="20.7478" ry="26.3924" transform="rotate(21.6544 137.744 230.523)" fill="white" fill-opacity="0.3"/>
<path d="M152.228 191.184C152.228 191.184 152.723 167.083 154.161 151.717C155.206 140.551 163.1 128.044 163.1 128.044C163.1 128.044 172.244 115.409 180.879 113.129C186.58 111.624 199.248 109.311 195.876 113.662C195.376 114.307 192.954 115.931 192.954 115.931C192.954 115.931 178.649 125.382 174.104 132.331C169.538 139.312 168.933 144.227 166.636 152.16C162.301 167.132 161.357 191.632 161.357 191.632L152.228 191.184Z" fill="#468402"/>
<path d="M144.743 190.938C144.743 190.938 144.992 159.701 146.737 139.777C148.005 125.299 158.923 109.026 158.923 109.026C158.923 109.026 171.604 92.5756 183.758 89.5494C191.782 87.5517 209.632 84.4477 204.951 90.1141C204.257 90.9548 200.866 93.0795 200.866 93.0795C200.866 93.0795 180.837 105.447 174.546 114.489C168.226 123.573 167.464 129.948 164.367 140.247C158.523 159.685 157.645 191.441 157.645 191.441L144.743 190.938Z" fill="#5C9B10"/>
<path d="M138.257 191.024C138.257 191.024 137.708 148.179 139.252 120.793C140.373 100.893 152.973 78.1775 152.973 78.1775C152.973 78.1775 167.674 55.1557 182.111 50.5616C191.641 47.5289 212.88 42.62 207.442 50.5616C206.636 51.7399 202.643 54.7774 202.643 54.7774C202.643 54.7774 179.053 72.4689 171.784 85.0984C164.48 97.7872 163.743 106.558 160.324 120.793C153.87 147.663 153.684 191.243 153.684 191.243L138.257 191.024Z" fill="#78A501"/>
<path d="M161.85 190.113C161.85 192.673 156.453 194.749 149.797 194.749C143.14 194.749 137.744 192.673 137.744 190.113C137.744 187.553 143.14 189.199 149.797 189.199C156.453 189.199 161.85 187.553 161.85 190.113Z" fill="#D15811"/>
<circle cx="140.21" cy="245.293" r="14.7702" fill="white"/>
<circle cx="141.111" cy="243.673" r="9.84679" fill="#27AE60"/>
<circle cx="141.11" cy="243.673" r="6.40041" fill="black"/>
<circle cx="146.034" cy="238.75" r="4.92339" fill="white" fill-opacity="0.4"/>
<circle cx="183.49" cy="245.293" r="14.7702" fill="white"/>
<circle cx="184.392" cy="243.673" r="9.84679" fill="#27AE60"/>
<circle cx="184.392" cy="243.673" r="6.40041" fill="black"/>
<circle cx="189.315" cy="238.75" r="4.92339" fill="white" fill-opacity="0.4"/>
<path d="M179.094 276.645C179.094 280.205 171.306 287.805 161.699 287.805C152.091 287.805 144.303 280.205 144.303 276.645C144.303 273.086 152.091 276.645 161.699 276.645C171.306 276.645 179.094 273.086 179.094 276.645Z" fill="black"/>
<path fill-rule="evenodd" clip-rule="evenodd" d="M151.664 285.04C151.657 284.962 151.653 284.883 151.653 284.803C151.653 282.042 156.151 279.803 161.698 279.803C167.246 279.803 171.744 282.042 171.744 284.803C171.744 284.883 171.74 284.962 171.733 285.041C168.897 286.655 165.436 287.805 161.699 287.805C157.962 287.805 154.5 286.655 151.664 285.04Z" fill="#FD0D38"/>
</svg>
