<svg width="301" height="400" viewBox="0 0 301 400" fill="none" xmlns="http://www.w3.org/2000/svg">
<path d="M110.455 273.962C80.8472 254.102 72.9433 168.248 95.6775 136.989C113.058 113.09 121.203 106.715 146.03 111.188C170.858 115.661 182.894 102.05 200.382 114.134C225.347 131.384 208.039 160.963 209.916 191.249C211.819 221.938 228.616 245.575 209.916 269.983C186.275 300.842 140.062 293.821 110.455 273.962Z" fill="#D4AF7A"/>
<path d="M209.917 269.983C186.275 300.842 140.062 293.821 110.455 273.962C95.7541 264.101 164.828 286.977 188.629 267.702C223.755 239.255 157.668 185.826 177.437 152.501C197.207 119.176 121.203 106.727 146.031 111.2C170.858 115.673 182.894 102.05 200.382 114.134C225.347 131.384 208.039 160.963 209.917 191.249C211.819 221.938 228.616 245.575 209.917 269.983Z" fill="#C5A06B"/>
<path d="M124.999 174.298C124.858 175.827 118.973 178.58 112.083 177.947C105.193 177.314 99.9078 173.535 100.048 172.005C100.189 170.476 105.483 174.162 112.373 174.795C119.263 175.428 125.139 172.769 124.999 174.298Z" fill="#C5A06B"/>
<path d="M167.771 170.008C167.979 171.529 162.865 175.538 156.01 176.474C149.154 177.411 143.153 174.92 142.946 173.398C142.738 171.876 148.726 174.274 155.581 173.338C162.437 172.401 167.563 168.486 167.771 170.008Z" fill="#C5A06B"/>
<path d="M185.856 260.604C186.064 262.126 181.526 266.056 175.38 266.895C169.234 267.734 163.809 265.165 163.601 263.643C163.393 262.122 168.806 264.598 174.952 263.758C181.097 262.919 185.648 259.082 185.856 260.604Z" fill="#C5A06B"/>
<path d="M127.496 263.689C127.268 264.694 122.355 265.838 116.896 264.6C111.436 263.361 107.497 260.211 107.725 259.205C107.953 258.2 111.906 261.289 117.366 262.527C122.825 263.765 127.724 262.683 127.496 263.689Z" fill="#C5A06B"/>
<path d="M148.181 141.635C148.005 143.657 139.47 147.265 129.406 146.389C119.341 145.514 111.558 140.486 111.734 138.464C111.91 136.443 119.704 141.346 129.768 142.222C139.833 143.097 148.357 139.613 148.181 141.635Z" fill="#C5A06B"/>
<circle cx="116.904" cy="199.122" r="14.4814" fill="white"/>
<circle cx="114.904" cy="197.122" r="9.65429" fill="#2F80ED"/>
<circle cx="114.904" cy="197.122" r="6.27529" fill="black"/>
<circle cx="119.731" cy="192.295" r="4.82715" fill="white" fill-opacity="0.4"/>
<circle cx="158.078" cy="199.122" r="14.4814" fill="white"/>
<circle cx="156.078" cy="197.122" r="9.65429" fill="#2F80ED"/>
<circle cx="156.078" cy="197.122" r="6.27529" fill="black"/>
<circle cx="160.906" cy="192.295" r="4.82715" fill="white" fill-opacity="0.4"/>
<path d="M155.97 235.185C155.97 238.745 148.182 246.345 138.575 246.345C128.968 246.345 121.179 238.745 121.179 235.185C121.179 231.626 128.968 235.185 138.575 235.185C148.182 235.185 155.97 231.626 155.97 235.185Z" fill="black"/>
<path d="M139.19 239.284C143.633 239.284 147.227 239.825 147.227 244.252C147.227 248.679 143.633 255.316 139.19 255.316C134.747 255.316 130.291 248.061 130.291 243.634C130.291 239.207 134.747 239.284 139.19 239.284Z" fill="#FD0D38"/>
</svg>
