<svg width="301" height="400" viewBox="0 0 301 400" fill="none" xmlns="http://www.w3.org/2000/svg">
<ellipse cx="152.954" cy="223.485" rx="88.7927" ry="81.0153" fill="#E10E1C"/>
<path d="M149.326 168.083C170.12 180.09 144.293 192.554 129.67 217.88C115.046 243.206 117.163 271.804 96.3687 259.797C75.575 247.791 70.5731 217.527 85.1969 192.2C99.8206 166.874 128.532 156.077 149.326 168.083Z" fill="white" fill-opacity="0.3"/>
<path d="M110.057 188.293C119.169 187.757 133.507 171.99 139.537 164.174C83.9887 154.26 83.7709 132.493 83.9887 133.886C85.0362 140.584 143.557 152.784 141.547 151.444C139.537 150.104 126.023 132.995 127.167 123.846C128.323 114.591 119.772 101.977 116.087 95.5001C122.452 99.2967 136.616 110.525 137.744 117.401C139.537 128.329 139.537 135.911 153.609 149.793C160.055 151.446 172.45 135.953 172.45 129.796C172.45 113.984 188.781 104.545 196.821 100.86C192.801 106.108 183.38 119.052 184.761 128.329C186.333 138.886 175.3 150.997 168.153 156.469C173.625 154.347 191.764 154.618 200.876 159.71C209.988 164.801 219.489 158.591 227.975 156.469C224.402 162.387 213.95 174.49 202.694 169.13C188.624 162.43 173.036 171.278 163.321 171.278C153.606 171.278 153.533 161.594 151.262 167.524C137.856 202.522 98.6674 188.963 110.057 188.293Z" fill="#7AA809"/>
<rect x="147.954" y="114.669" width="10" height="46.9417" rx="4" fill="#58860C"/>
<ellipse cx="152.953" cy="117.961" rx="3.77227" ry="2.43012" fill="#7AA809"/>
<circle cx="139.368" cy="207.756" r="14.4814" fill="white"/>
<circle cx="139.368" cy="208.756" r="9.65429" fill="#2F80ED"/>
<circle cx="139.368" cy="208.756" r="6.27529" fill="black"/>
<circle cx="144.195" cy="203.928" r="4.82715" fill="white" fill-opacity="0.4"/>
<circle cx="185.088" cy="207.756" r="14.4814" fill="white"/>
<circle cx="185.088" cy="208.756" r="9.65429" fill="#2F80ED"/>
<circle cx="185.088" cy="208.756" r="6.27529" fill="black"/>
<circle cx="189.916" cy="203.928" r="4.82715" fill="white" fill-opacity="0.4"/>
<path d="M172.084 233.48C172.084 239.003 167.607 243.48 162.084 243.48C156.561 243.48 152.084 239.003 152.084 233.48" stroke="black" stroke-width="3"/>
</svg>
